<?xml version="1.0" encoding="utf-8"?>
<!-- Generator: Adobe Illustrator 25.2.1, SVG Export Plug-In . SVG Version: 6.00 Build 0)  -->
<svg version="1.1" id="Layer_1" xmlns="http://www.w3.org/2000/svg" xmlns:xlink="http://www.w3.org/1999/xlink" x="0px" y="0px"
	 viewBox="0 0 1024 1093.94" style="enable-background:new 0 0 1024 1093.94;" xml:space="preserve">
<style type="text/css">
	.st0{fill:#FFFFFF;stroke:#231F20;stroke-miterlimit:10;}
	.st1{fill:#1C1E26;}
	.st2{fill:#DAE8D9;}
	.st3{fill:#8DADCB;}
	.st4{fill:#2B78A7;}
	.st5{fill:#231F20;}
	.st6{fill:#E4F7F5;}
	.st7{fill:#D0E2DF;}
	.st8{fill:#D6E5E4;}
	.st9{fill:#F5FCFF;}
	.st10{fill:#FCC5A8;}
	.st11{fill:#DC2606;}
	.st12{fill:#37AEF4;}
	.st13{fill:#FFFFFF;}
	.st14{fill:none;stroke:#231F20;stroke-width:1.4945;stroke-linecap:round;stroke-linejoin:round;stroke-miterlimit:10;}
	.st15{fill:#79B5D3;}
	.st16{fill:none;stroke:#231F20;stroke-width:2.5396;stroke-linecap:round;stroke-linejoin:round;stroke-miterlimit:10;}
	.st17{fill:none;stroke:#231F20;stroke-width:2.9172;stroke-linecap:round;stroke-linejoin:round;stroke-miterlimit:10;}
</style>
<rect x="-0.8" class="st0" width="1024" height="1093.94"/>
<rect y="1023.94" class="st1" width="1024" height="70"/>
<g>
	<g>
		<g>
			<path class="st2" d="M278.12,1043.38h5.2c4.09,0,7.46,1.08,10.11,3.2c2.67,2.14,4,5.19,4,9.15c0,4.08-1.32,7.2-3.96,9.36
				c-2.65,2.17-6.06,3.24-10.24,3.24h-5.1V1043.38z M281.25,1065.5h1.1c1.62,0,3.16-0.16,4.6-0.48c1.45-0.33,2.71-0.86,3.79-1.62
				c1.07-0.78,1.94-1.77,2.58-2.99c0.64-1.22,0.97-2.74,0.97-4.55c0-1.79-0.32-3.32-0.95-4.59c-0.63-1.28-1.51-2.26-2.66-2.97
				c-1.12-0.72-2.38-1.25-3.75-1.58c-1.37-0.35-2.9-0.5-4.59-0.5h-1.1V1065.5z"/>
			<path class="st2" d="M302.03,1061.1c0.04,1.38,0.49,2.59,1.33,3.61c0.87,1.02,1.99,1.51,3.36,1.51c1.09,0,1.98-0.25,2.69-0.75
				c0.7-0.51,1.36-1.25,1.98-2.26l2.54,1.43c-0.73,1.32-1.75,2.35-3.03,3.12c-1.28,0.74-2.68,1.11-4.21,1.11
				c-2.34,0-4.2-0.76-5.6-2.31c-1.38-1.59-2.07-3.51-2.07-5.83c0-2.43,0.66-4.45,1.98-6.01c1.29-1.56,3.17-2.31,5.64-2.31
				c2.41,0,4.21,0.75,5.44,2.31c1.24,1.54,1.87,3.52,1.87,5.93v0.46H302.03z M310.93,1058.85c-0.19-1.2-0.63-2.15-1.39-2.83
				c-0.75-0.7-1.72-1.05-2.92-1.05c-0.57,0-1.12,0.08-1.62,0.27c-0.51,0.2-0.94,0.48-1.33,0.82c-0.38,0.36-0.71,0.77-0.98,1.25
				c-0.25,0.49-0.42,0.99-0.5,1.55H310.93z"/>
			<path class="st2" d="M322.77,1056.4c-0.45-0.92-1.11-1.37-2-1.37c-0.42,0-0.8,0.15-1.13,0.45c-0.34,0.3-0.5,0.67-0.5,1.08
				c0,0.4,0.13,0.75,0.38,1.02c0.25,0.28,0.6,0.53,1.05,0.78c0.29,0.13,0.51,0.25,0.67,0.3c0.15,0.09,0.4,0.21,0.77,0.37
				c0.17,0.07,0.34,0.16,0.46,0.2c0.13,0.04,0.23,0.08,0.3,0.12c1.1,0.51,1.99,1.09,2.64,1.76c0.64,0.65,0.97,1.55,0.97,2.64
				c0,1.46-0.54,2.69-1.6,3.67c-1.04,0.98-2.31,1.46-3.77,1.46c-0.61,0-1.19-0.08-1.74-0.25c-0.55-0.15-1.07-0.39-1.56-0.69
				c-0.48-0.3-0.89-0.66-1.26-1.09c-0.37-0.44-0.65-0.92-0.85-1.43l2.57-1.15c0.73,1.32,1.68,1.97,2.84,1.97
				c0.47,0,0.9-0.12,1.29-0.38c0.41-0.25,0.71-0.57,0.89-0.95c0.19-0.4,0.23-0.81,0.12-1.28c-0.11-0.43-0.45-0.87-1.03-1.27
				l-2.95-1.55c-0.5-0.26-0.95-0.53-1.33-0.8c-0.38-0.27-0.69-0.55-0.93-0.84c-0.25-0.3-0.43-0.63-0.56-0.98
				c-0.12-0.38-0.18-0.79-0.18-1.28c0-1.26,0.44-2.32,1.34-3.19c0.89-0.88,1.97-1.31,3.26-1.31c1.96,0,3.38,0.88,4.27,2.71
				L322.77,1056.4z"/>
			<path class="st2" d="M333.54,1045.77c0,0.55-0.2,1.03-0.6,1.42c-0.4,0.4-0.89,0.6-1.46,0.6c-0.58,0-1.07-0.19-1.47-0.6
				c-0.4-0.39-0.6-0.87-0.6-1.42c0-0.58,0.2-1.07,0.6-1.48c0.4-0.41,0.89-0.6,1.47-0.6c0.57,0,1.06,0.19,1.46,0.6
				C333.34,1044.7,333.54,1045.18,333.54,1045.77z M332.98,1068.34h-3.01v-15.49h3.01V1068.34z"/>
			<path class="st2" d="M352.39,1068.06c0,2.9-0.55,5.17-1.67,6.79c-1.12,1.58-3.1,2.37-5.94,2.37c-2.2,0-4-0.63-5.4-1.88
				c-1.38-1.25-2.09-2.96-2.13-5.13h2.99c0,1.39,0.44,2.46,1.28,3.24c0.87,0.75,2,1.13,3.4,1.13c1.71,0,2.88-0.49,3.52-1.5
				c0.63-1,0.94-2.38,0.94-4.2v-2.95h-0.07c-0.62,0.95-1.39,1.67-2.31,2.18c-0.92,0.52-1.92,0.77-2.98,0.77
				c-2.32,0-4.15-0.8-5.48-2.41c-1.33-1.62-1.98-3.59-1.98-5.96c0-2.24,0.67-4.12,2.02-5.69c1.36-1.62,3.12-2.41,5.31-2.41
				c2.28,0,4.11,1.04,5.42,3.08h0.07v-2.63h3V1068.06z M344.49,1066.22c1.57,0,2.8-0.54,3.69-1.61c0.91-1.11,1.37-2.45,1.37-4.01
				c0-1.55-0.46-2.86-1.37-3.95c-0.88-1.07-2.12-1.62-3.69-1.62c-1.5,0-2.7,0.55-3.61,1.67c-0.89,1.08-1.34,2.38-1.34,3.9
				c0,1.56,0.45,2.88,1.34,3.97C341.8,1065.69,343,1066.22,344.49,1066.22z"/>
			<path class="st2" d="M359.29,1054.93h0.07c0.43-0.83,1.09-1.44,1.93-1.88c0.85-0.45,1.77-0.65,2.77-0.65
				c1.02,0,1.88,0.14,2.6,0.45c0.7,0.3,1.28,0.74,1.71,1.32c0.44,0.58,0.75,1.27,0.94,2.1c0.19,0.82,0.28,1.78,0.28,2.82v9.24h-3
				v-8.87c0-1.53-0.23-2.64-0.66-3.34c-0.45-0.73-1.37-1.1-2.77-1.1c-0.52,0-0.95,0.05-1.3,0.15c-0.36,0.09-0.67,0.23-0.94,0.42
				c-0.27,0.19-0.49,0.41-0.67,0.65c-0.17,0.25-0.35,0.51-0.5,0.81c-0.07,0.14-0.13,0.35-0.19,0.59c-0.05,0.24-0.1,0.49-0.14,0.73
				c-0.05,0.26-0.09,0.51-0.1,0.77c-0.02,0.26-0.03,0.46-0.03,0.61v1.45v7.12h-3v-15.49h3V1054.93z"/>
			<path class="st2" d="M383.14,1039.61h3v15.82h0.07c1.38-2.03,3.19-3.03,5.44-3.03c2.17,0,3.95,0.8,5.31,2.41
				c1.35,1.56,2.03,3.45,2.03,5.69c0,2.37-0.67,4.34-2,5.96c-1.34,1.61-3.17,2.41-5.47,2.41c-1.06,0-2.06-0.25-2.99-0.77
				c-0.92-0.51-1.69-1.23-2.31-2.18h-0.07v2.42h-3V1039.61z M390.91,1066.22c1.58,0,2.81-0.54,3.7-1.61
				c0.91-1.11,1.36-2.45,1.36-4.01c0-1.55-0.45-2.86-1.36-3.95c-0.89-1.07-2.12-1.62-3.7-1.62c-1.49,0-2.7,0.55-3.61,1.67
				c-0.89,1.08-1.34,2.38-1.34,3.9c0,1.56,0.45,2.88,1.34,3.97C388.21,1065.69,389.42,1066.22,390.91,1066.22z"/>
			<path class="st2" d="M399.41,1052.85h3.5l5.27,9.83l4.91-9.83h3.37l-12.65,24.37h-3.4l6.15-11.53L399.41,1052.85z"/>
			<path class="st2" d="M431.59,1062.08l-2.87,6.26h-3.37l12-26.01l12.01,26.01h-3.37l-2.88-6.26H431.59z M437.36,1049.14
				l-4.47,10.11h8.94L437.36,1049.14z"/>
			<path class="st2" d="M454.26,1068.34h-3v-28.73h3V1068.34z"/>
			<path class="st2" d="M461.66,1068.34h-2.99v-28.73h2.99V1068.34z"/>
			<path class="st2" d="M473.07,1056.5v2.47h-7.29v-2.47H473.07z"/>
			<path class="st2" d="M484.75,1042.62c-0.94-0.43-1.61-0.62-2-0.62c-0.64,0-1.12,0.18-1.4,0.6c-0.29,0.4-0.48,0.9-0.6,1.5
				c-0.06,0.45-0.1,0.79-0.12,1.05c-0.01,0.24-0.02,0.6-0.02,1.03v6.66h4.14v2.78h-4.14v12.71h-2.99v-12.71h-1.37v-2.78h1.37v-7.55
				c0-4.06,1.67-6.09,5.03-6.09c0.74,0,1.43,0.13,2.11,0.4V1042.62z"/>
			<path class="st2" d="M489.39,1055.37h0.09c0.39-0.93,0.94-1.66,1.68-2.18c0.74-0.55,1.6-0.79,2.59-0.79
				c0.83,0,1.65,0.24,2.47,0.75l-1.37,2.72c-0.48-0.42-1.1-0.63-1.83-0.63c-1.53,0-2.56,0.62-3.07,1.84
				c-0.22,0.58-0.38,1.17-0.46,1.72c-0.07,0.55-0.11,1.2-0.11,1.92v7.62h-3v-15.49h3V1055.37z"/>
			<path class="st2" d="M499.69,1061.1c0.05,1.38,0.48,2.59,1.33,3.61c0.88,1.02,1.99,1.51,3.37,1.51c1.09,0,1.99-0.25,2.69-0.75
				c0.7-0.51,1.36-1.25,1.98-2.26l2.53,1.43c-0.73,1.32-1.73,2.35-3.02,3.12c-1.27,0.74-2.68,1.11-4.22,1.11
				c-2.32,0-4.2-0.76-5.6-2.31c-1.37-1.59-2.07-3.51-2.07-5.83c0-2.43,0.65-4.45,1.98-6.01c1.28-1.56,3.16-2.31,5.62-2.31
				c2.42,0,4.23,0.75,5.45,2.31c1.25,1.54,1.86,3.52,1.86,5.93v0.46H499.69z M508.59,1058.85c-0.18-1.2-0.64-2.15-1.39-2.83
				c-0.74-0.7-1.72-1.05-2.92-1.05c-0.57,0-1.12,0.08-1.61,0.27c-0.5,0.2-0.95,0.48-1.34,0.82c-0.39,0.36-0.71,0.77-0.97,1.25
				c-0.24,0.49-0.43,0.99-0.52,1.55H508.59z"/>
			<path class="st2" d="M515.96,1061.1c0.05,1.38,0.5,2.59,1.34,3.61c0.86,1.02,1.98,1.51,3.36,1.51c1.1,0,1.99-0.25,2.69-0.75
				c0.7-0.51,1.37-1.25,1.98-2.26l2.53,1.43c-0.73,1.32-1.73,2.35-3,3.12c-1.28,0.74-2.69,1.11-4.23,1.11c-2.33,0-4.2-0.76-5.6-2.31
				c-1.38-1.59-2.07-3.51-2.07-5.83c0-2.43,0.65-4.45,1.97-6.01c1.29-1.56,3.16-2.31,5.65-2.31c2.39,0,4.21,0.75,5.42,2.31
				c1.25,1.54,1.86,3.52,1.86,5.93v0.46H515.96z M524.88,1058.85c-0.18-1.2-0.65-2.15-1.39-2.83c-0.75-0.7-1.73-1.05-2.91-1.05
				c-0.59,0-1.13,0.08-1.63,0.27c-0.5,0.2-0.95,0.48-1.33,0.82c-0.39,0.36-0.73,0.77-0.97,1.25c-0.26,0.49-0.43,0.99-0.52,1.55
				H524.88z"/>
			<path class="st2" d="M537.57,1056.5v2.47h-7.29v-2.47H537.57z"/>
			<path class="st2" d="M553.15,1065.92h-0.05c-0.63,0.95-1.4,1.67-2.33,2.18c-0.92,0.52-1.92,0.77-2.98,0.77
				c-2.33,0-4.14-0.8-5.47-2.41c-1.34-1.62-2-3.59-2-5.96c0-2.24,0.67-4.12,2.03-5.69c1.36-1.62,3.12-2.41,5.31-2.41
				c2.24,0,4.05,1,5.44,3.03h0.05v-15.82h3v28.73h-3V1065.92z M548.24,1066.22c1.59,0,2.83-0.54,3.71-1.61
				c0.9-1.11,1.37-2.45,1.37-4.01c0-1.55-0.46-2.86-1.37-3.95c-0.88-1.07-2.12-1.62-3.71-1.62c-1.48,0-2.68,0.55-3.59,1.67
				c-0.89,1.08-1.34,2.38-1.34,3.9c0,1.56,0.45,2.88,1.34,3.97C545.56,1065.69,546.76,1066.22,548.24,1066.22z"/>
			<path class="st2" d="M561.05,1054.77c1.62-1.58,3.61-2.37,5.94-2.37c2.33,0,4.31,0.79,5.9,2.37c1.63,1.59,2.44,3.55,2.44,5.87
				s-0.81,4.27-2.44,5.86c-1.58,1.59-3.57,2.37-5.9,2.37c-2.34,0-4.32-0.78-5.94-2.37c-1.59-1.59-2.39-3.54-2.39-5.86
				S559.46,1056.36,561.05,1054.77z M561.65,1060.64c0,1.43,0.53,2.7,1.58,3.81c1.02,1.06,2.28,1.58,3.77,1.58
				c1.45,0,2.72-0.53,3.76-1.58c1.05-1.1,1.58-2.37,1.58-3.81c0-1.46-0.52-2.73-1.58-3.81c-1.04-1.07-2.31-1.59-3.76-1.59
				c-1.49,0-2.75,0.52-3.77,1.59C562.18,1057.91,561.65,1059.18,561.65,1060.64z"/>
			<path class="st2" d="M583.4,1062.72l4.6-10.73l4.57,10.73l4.53-9.86h3.41l-7.94,16.02l-4.57-10.35l-4.6,10.35l-7.93-16.02h3.4
				L583.4,1062.72z"/>
			<path class="st2" d="M605.01,1054.93h0.06c0.44-0.83,1.1-1.44,1.95-1.88c0.83-0.45,1.77-0.65,2.76-0.65
				c1.03,0,1.89,0.14,2.6,0.45c0.71,0.3,1.29,0.74,1.71,1.32c0.46,0.58,0.76,1.27,0.95,2.1c0.19,0.82,0.27,1.78,0.27,2.82v9.24h-3
				v-8.87c0-1.53-0.21-2.64-0.66-3.34c-0.46-0.73-1.37-1.1-2.78-1.1c-0.51,0-0.94,0.05-1.31,0.15c-0.34,0.09-0.66,0.23-0.92,0.42
				c-0.27,0.19-0.5,0.41-0.67,0.65c-0.18,0.25-0.33,0.51-0.5,0.81c-0.05,0.14-0.12,0.35-0.17,0.59c-0.06,0.24-0.1,0.49-0.16,0.73
				c-0.03,0.26-0.07,0.51-0.1,0.77c-0.01,0.26-0.03,0.46-0.03,0.61v1.45v7.12h-3v-15.49h3V1054.93z"/>
			<path class="st2" d="M622.58,1068.34h-3v-28.73h3V1068.34z"/>
			<path class="st2" d="M627.85,1054.77c1.63-1.58,3.61-2.37,5.94-2.37c2.32,0,4.3,0.79,5.9,2.37c1.62,1.59,2.43,3.55,2.43,5.87
				s-0.81,4.27-2.43,5.86c-1.6,1.59-3.58,2.37-5.9,2.37c-2.33,0-4.31-0.78-5.94-2.37c-1.61-1.59-2.4-3.54-2.4-5.86
				S626.25,1056.36,627.85,1054.77z M628.46,1060.64c0,1.43,0.52,2.7,1.57,3.81c1.02,1.06,2.28,1.58,3.77,1.58
				c1.47,0,2.72-0.53,3.76-1.58c1.06-1.1,1.58-2.37,1.58-3.81c0-1.46-0.53-2.73-1.58-3.81c-1.04-1.07-2.28-1.59-3.76-1.59
				c-1.49,0-2.75,0.52-3.77,1.59C628.98,1057.91,628.46,1059.18,628.46,1060.64z"/>
			<path class="st2" d="M659.5,1068.34h-3v-2.42h-0.07c-1.33,1.98-3.1,2.95-5.3,2.95c-2.29,0-4.11-0.8-5.48-2.41
				c-1.33-1.62-1.98-3.59-1.98-5.96c0-2.24,0.68-4.12,2.02-5.69c1.36-1.62,3.14-2.41,5.33-2.41c2.23,0,4.04,1,5.41,3.03h0.07v-2.57
				h3V1068.34z M651.6,1066.22c1.57,0,2.81-0.54,3.71-1.61c0.9-1.11,1.35-2.45,1.35-4.01c0-1.55-0.45-2.86-1.35-3.95
				c-0.9-1.07-2.14-1.62-3.71-1.62c-1.49,0-2.7,0.55-3.6,1.67c-0.89,1.08-1.33,2.38-1.33,3.9c0,1.56,0.44,2.88,1.33,3.97
				C648.9,1065.69,650.11,1066.22,651.6,1066.22z"/>
			<path class="st2" d="M675.05,1065.92h-0.07c-0.62,0.95-1.4,1.67-2.32,2.18c-0.91,0.52-1.91,0.77-2.98,0.77
				c-2.32,0-4.13-0.8-5.47-2.41c-1.34-1.62-1.99-3.59-1.99-5.96c0-2.24,0.67-4.12,2.04-5.69c1.35-1.62,3.11-2.41,5.29-2.41
				c2.25,0,4.06,1,5.44,3.03h0.07v-15.82h3v28.73h-3V1065.92z M670.15,1066.22c1.58,0,2.81-0.54,3.7-1.61
				c0.92-1.11,1.36-2.45,1.36-4.01c0-1.55-0.45-2.86-1.36-3.95c-0.89-1.07-2.12-1.62-3.7-1.62c-1.5,0-2.69,0.55-3.61,1.67
				c-0.88,1.08-1.32,2.38-1.32,3.9c0,1.56,0.44,2.88,1.32,3.97C667.46,1065.69,668.65,1066.22,670.15,1066.22z"/>
			<path class="st2" d="M686.65,1066.96c0,0.53-0.18,0.99-0.56,1.36c-0.38,0.37-0.84,0.55-1.38,0.55c-0.52,0-1-0.19-1.37-0.55
				c-0.37-0.37-0.57-0.83-0.57-1.36c0-0.51,0.2-0.96,0.57-1.35c0.37-0.37,0.85-0.56,1.37-0.56c0.53,0,1,0.19,1.38,0.56
				C686.47,1065.99,686.65,1066.45,686.65,1066.96z"/>
			<path class="st2" d="M703.05,1057.26c-1.24-1.39-2.74-2.1-4.47-2.1c-1.45,0-2.67,0.56-3.69,1.64c-1.01,1.09-1.5,2.38-1.5,3.8
				c0,1.62,0.5,2.91,1.5,3.93c1.04,1.04,2.33,1.57,3.88,1.57c1.61,0,3.04-0.7,4.28-2.07v3.81c-1.29,0.69-2.72,1.02-4.29,1.02
				c-2.31,0-4.3-0.77-5.94-2.35c-1.62-1.55-2.43-3.47-2.43-5.79c0-2.38,0.81-4.36,2.43-5.96c1.62-1.58,3.65-2.37,6.1-2.37
				c1.61,0,2.99,0.33,4.14,1.02V1057.26z"/>
			<path class="st2" d="M707.3,1054.77c1.62-1.58,3.6-2.37,5.94-2.37c2.34,0,4.31,0.79,5.91,2.37c1.61,1.59,2.42,3.55,2.42,5.87
				s-0.8,4.27-2.42,5.86c-1.6,1.59-3.57,2.37-5.91,2.37c-2.33,0-4.31-0.78-5.94-2.37c-1.6-1.59-2.41-3.54-2.41-5.86
				S705.7,1056.36,707.3,1054.77z M707.9,1060.64c0,1.43,0.5,2.7,1.56,3.81c1.02,1.06,2.28,1.58,3.77,1.58
				c1.46,0,2.73-0.53,3.77-1.58c1.04-1.1,1.56-2.37,1.56-3.81c0-1.46-0.53-2.73-1.56-3.81c-1.04-1.07-2.31-1.59-3.77-1.59
				c-1.5,0-2.75,0.52-3.77,1.59C708.4,1057.91,707.9,1059.18,707.9,1060.64z"/>
			<path class="st2" d="M727.2,1054.81h0.08c0.43-0.72,1.02-1.29,1.78-1.76c0.74-0.43,1.53-0.65,2.35-0.65c1.95,0,3.45,0.9,4.5,2.73
				c0.48-0.83,1.17-1.5,2.02-2c0.84-0.5,1.79-0.73,2.78-0.73c3.46,0,5.17,2.22,5.17,6.68v9.26h-3v-8.77c0-0.39-0.02-0.8-0.05-1.18
				c-0.04-0.38-0.09-0.75-0.19-1.13c-0.09-0.35-0.22-0.68-0.41-1c-0.17-0.3-0.41-0.58-0.72-0.83c-0.4-0.26-0.91-0.39-1.53-0.39
				c-0.63,0-1.16,0.13-1.59,0.39c-0.43,0.25-0.76,0.57-0.99,0.92c-0.25,0.35-0.43,0.84-0.56,1.37c-0.12,0.54-0.21,1.05-0.25,1.5
				c-0.02,0.43-0.05,0.95-0.05,1.51v7.62h-3.01v-8.2c0-0.53,0-0.96-0.03-1.31c-0.02-0.37-0.09-0.8-0.2-1.35
				c-0.11-0.57-0.25-0.98-0.43-1.25c-0.18-0.3-0.45-0.58-0.83-0.83c-0.38-0.24-0.84-0.36-1.37-0.36c-1.54,0-2.52,0.67-2.96,1.99
				c-0.21,0.61-0.34,1.21-0.41,1.74c-0.06,0.56-0.09,1.21-0.09,1.96v7.62h-3v-15.49h3V1054.81z"/>
		</g>
		<g>
			<g>
				<path class="st2" d="M208.16,1059.22c14.16,0,28.32,0,42.48,0c1.29,0,1.29-1.99,0-1.99c-14.16,0-28.32,0-42.48,0
					C206.88,1057.23,206.88,1059.22,208.16,1059.22L208.16,1059.22z"/>
			</g>
			<g>
				<path class="st2" d="M773.36,1059.22c14.15,0,28.31,0,42.47,0c1.3,0,1.3-1.99,0-1.99c-14.15,0-28.32,0-42.47,0
					C772.08,1057.23,772.08,1059.22,773.36,1059.22L773.36,1059.22z"/>
			</g>
		</g>
	</g>
</g>
<g>
	<path class="st3" d="M434.98,692.04c0,0-11.72,18.07,4.58,53.22c16.3,35.15,13.86,44.74,13.86,44.74s10.2,10,25.52,11.78
		c15.32,1.78,27.21,9.83,33.83-37.49C519.4,716.95,434.98,692.04,434.98,692.04z"/>
	<path class="st4" d="M467.57,705.52c-2.38,7.66-4.48,23.78,6.77,48.05c16.3,35.15,13.86,44.74,13.86,44.74s2.34,2.28,6.43,4.85
		c7.81-1.37,14-9.31,18.14-38.89C516.57,737.19,490.54,717.46,467.57,705.52z"/>
	<g>
		<path class="st5" d="M435.03,692.18c0,0.14-0.18,0.41-0.28,0.64c-0.12,0.23-0.21,0.48-0.32,0.73c-0.22,0.48-0.38,0.99-0.56,1.48
			c-0.19,0.49-0.32,1.01-0.48,1.51c-0.16,0.5-0.31,1.01-0.42,1.53l-0.36,1.54c-0.1,0.52-0.18,1.04-0.27,1.56
			c-0.2,1.03-0.3,2.09-0.4,3.13c-0.37,4.2-0.25,8.42,0.26,12.59c1.09,8.35,3.66,16.45,6.99,24.19c1.61,3.87,3.55,7.74,5.2,11.68
			c1.69,3.94,3.29,7.92,4.69,11.98c1.42,4.05,2.67,8.17,3.65,12.37c0.5,2.1,0.91,4.22,1.21,6.37c0.15,1.08,0.25,2.16,0.31,3.25
			c0.02,1.12,0.07,2.15-0.17,3.41l-0.18-0.65c6.06,5.7,13.89,9.76,22.14,11.34c1.04,0.18,2.07,0.32,3.12,0.47
			c1.06,0.12,2.13,0.26,3.18,0.42c2.11,0.31,4.2,0.69,6.29,0.88c2.08,0.18,4.18,0.24,6.15-0.2c1.97-0.42,3.79-1.34,5.25-2.71
			c1.48-1.35,2.66-3.04,3.64-4.84c0.99-1.8,1.77-3.73,2.45-5.7c1.37-3.94,2.37-8.03,3.17-12.17c0.79-4.14,1.46-8.31,2.03-12.5
			c0.45-4.1,0.49-8.2-0.35-12.21c-0.86-3.99-2.35-7.83-4.29-11.45c-2.03-3.58-4.49-6.92-7.21-10.06
			c-5.54-6.21-12.11-11.52-19.07-16.24c-3.5-2.34-7.08-4.57-10.78-6.61c-3.69-2.04-7.42-4.06-11.24-5.89
			c-3.81-1.86-7.69-3.57-11.59-5.24c-1.95-0.83-3.92-1.63-5.9-2.4L435.03,692.18z M434.93,691.9c0.4,0.05,0.59,0.14,0.87,0.2
			l0.77,0.21l1.54,0.44c1.02,0.29,2.04,0.62,3.06,0.94c2.03,0.65,4.05,1.32,6.06,2.03c4.03,1.4,7.99,3.01,11.92,4.68
			c7.86,3.35,15.49,7.29,22.74,11.89c3.64,2.27,7.14,4.79,10.52,7.48c3.35,2.73,6.5,5.7,9.46,8.89c2.87,3.27,5.45,6.82,7.61,10.65
			c2.08,3.88,3.59,8.07,4.46,12.41c0.85,4.35,0.73,8.84,0.18,13.18c-0.64,4.23-1.37,8.45-2.32,12.63c-0.95,4.18-2.06,8.35-3.63,12.4
			c-0.79,2.02-1.69,4.01-2.84,5.89c-1.13,1.88-2.49,3.68-4.22,5.13c-0.85,0.74-1.83,1.34-2.84,1.84c-1.03,0.46-2.11,0.82-3.22,1.01
			c-2.21,0.4-4.42,0.25-6.55-0.01c-2.14-0.29-4.23-0.68-6.32-1.04c-1.04-0.18-2.09-0.34-3.13-0.48c-1.06-0.16-2.13-0.31-3.18-0.5
			c-8.44-1.74-16.32-5.63-22.92-11.28c-0.16-0.13-0.23-0.33-0.2-0.52l0.02-0.13c0.12-0.85,0.06-1.97-0.02-2.97
			c-0.1-1.03-0.25-2.07-0.44-3.1c-0.38-2.06-0.88-4.11-1.46-6.14c-1.14-4.07-2.57-8.06-4.11-12.01c-0.74-1.99-1.54-3.95-2.35-5.91
			c-0.78-1.97-1.63-3.92-2.47-5.87c-1.68-3.91-3.47-7.72-5.12-11.74c-3.3-7.96-5.72-16.37-6.49-25c-0.32-4.32-0.27-8.67,0.41-12.94
			c0.17-1.07,0.34-2.13,0.62-3.18c0.13-0.52,0.24-1.05,0.38-1.57l0.48-1.55c0.15-0.52,0.34-1.02,0.53-1.53
			c0.19-0.5,0.37-1.01,0.61-1.5c0.23-0.49,0.44-0.98,0.7-1.46c0.13-0.24,0.24-0.48,0.39-0.71
			C434.58,692.41,434.64,692.21,434.93,691.9z"/>
	</g>
	<path class="st3" d="M604.75,742.63c0,0,26.31,11.3,35.64-23.51c9.33-34.81,21.93-66.71,49.62-43.95c0,0-9.92-34.69-39.66-36.74
		c-29.75-2.05-35.71,33.91-56.83,36.96S604.75,742.63,604.75,742.63z"/>
	<path class="st4" d="M682.84,659.87c-28.01-20.61-40.94,10.77-50.55,45c-7.57,26.97-25.8,26.26-33.64,24.57
		c3.36,7.76,6.09,13.19,6.09,13.19s26.31,11.3,35.64-23.51c9.33-34.81,21.93-66.71,49.62-43.95
		C690.01,675.17,687.93,667.93,682.84,659.87z"/>
	<path class="st6" d="M650.34,638.43c-11.34-0.78-19.21,3.96-25.8,10.29c1.1,2.18,2.14,6.15,2.03,13.38
		c-0.22,15,8.26,8.75,9.82,11.2c1.56,2.45-1.11,20.3,1.79,22.76c1.7,1.44,5.54,2.18,8.43,2.56c8.88-25.05,21.35-41.57,43.4-23.46
		C690.01,675.17,680.09,640.48,650.34,638.43z"/>
	<path class="st7" d="M636.79,690.1c0.11,2.88,0.47,5.2,1.39,5.97c1.7,1.44,5.54,2.18,8.43,2.56c0,0,0-0.01,0-0.01
		c1.09-3.08,2.24-6.02,3.45-8.79c0.03-0.06,0.05-0.12,0.08-0.18c0.26-0.59,0.53-1.18,0.79-1.76c0.08-0.18,0.17-0.36,0.25-0.53
		c0.26-0.55,0.52-1.09,0.78-1.62c0.08-0.17,0.17-0.33,0.25-0.49c0.83-1.64,1.68-3.18,2.57-4.64c0.14-0.23,0.28-0.46,0.42-0.68
		c0.24-0.38,0.49-0.75,0.73-1.12c0.17-0.25,0.33-0.49,0.5-0.74c0.24-0.34,0.48-0.69,0.73-1.02c0.19-0.25,0.38-0.49,0.57-0.74
		c0.31-0.4,0.63-0.8,0.95-1.18c0.32-0.37,0.64-0.75,0.96-1.1c0.22-0.24,0.45-0.46,0.67-0.69c0.24-0.24,0.48-0.48,0.72-0.71
		c0.23-0.21,0.46-0.42,0.7-0.62c0.25-0.22,0.51-0.43,0.77-0.64c0.23-0.18,0.45-0.36,0.68-0.53c0.31-0.22,0.62-0.43,0.93-0.63
		c0.19-0.12,0.38-0.26,0.57-0.38c0.48-0.29,0.98-0.55,1.48-0.79c0.2-0.1,0.41-0.18,0.62-0.26c0.34-0.14,0.67-0.28,1.02-0.4
		c0.23-0.08,0.45-0.15,0.68-0.22c0.35-0.1,0.69-0.19,1.05-0.27c0.22-0.05,0.44-0.1,0.66-0.14c0.44-0.08,0.89-0.13,1.34-0.17
		c0.14-0.01,0.27-0.04,0.41-0.04c0.58-0.04,1.17-0.03,1.77,0c0.2,0.01,0.41,0.04,0.61,0.05c0.43,0.04,0.85,0.09,1.29,0.16
		c0.23,0.04,0.47,0.08,0.71,0.13c0.43,0.09,0.87,0.2,1.32,0.32c0.22,0.06,0.44,0.12,0.67,0.19c0.6,0.18,1.2,0.4,1.81,0.64
		c0.07,0.03,0.14,0.05,0.22,0.08c0.68,0.28,1.38,0.61,2.09,0.97c0.22,0.11,0.44,0.24,0.66,0.36c0.51,0.27,1.01,0.56,1.53,0.88
		c0.26,0.16,0.51,0.32,0.77,0.48c0.52,0.33,1.04,0.69,1.58,1.06c0.24,0.17,0.47,0.33,0.71,0.5c0.77,0.56,1.54,1.15,2.33,1.8
		c0,0-2.08-7.24-7.16-15.3C658.96,642.29,646.04,662.53,636.79,690.1z"/>
	<g>
		<path class="st5" d="M650.34,638.53c-2.38-0.14-4.78-0.07-7.13,0.32c-2.35,0.39-4.64,1.07-6.8,2.05c-4.34,1.94-8.1,4.93-11.41,8.3
			l0.13-0.77c2.48,5.05,2.25,10.71,2.33,15.84c0.07,1.28,0.21,2.55,0.54,3.73c0.31,1.18,0.84,2.28,1.67,2.97
			c0.83,0.69,1.98,0.92,3.25,0.95c0.63,0.02,1.3-0.01,2.03,0.05c0.37,0.04,0.77,0.09,1.2,0.29c0.43,0.18,0.84,0.64,0.98,1.07
			c0.27,0.79,0.29,1.46,0.34,2.15c0.03,0.68,0.04,1.35,0.03,2.02c-0.02,1.34-0.08,2.66-0.14,3.98c-0.12,2.64-0.28,5.28-0.24,7.91
			c0.02,1.31,0.07,2.63,0.27,3.91c0.1,0.64,0.25,1.27,0.5,1.83c0.11,0.29,0.29,0.52,0.48,0.72c0.23,0.2,0.49,0.37,0.77,0.53
			c1.11,0.62,2.39,0.97,3.65,1.27c1.27,0.29,2.57,0.5,3.87,0.66l-0.35,0.22c1.75-4.9,3.55-9.8,5.91-14.48
			c2.34-4.66,5.15-9.23,9.19-12.8c2.01-1.78,4.41-3.2,7.04-3.98c2.64-0.79,5.48-0.8,8.14-0.28c5.39,1.09,9.98,4.12,14.07,7.41
			l-1.62,1.07c-1.41-4.42-3.35-8.8-5.68-12.89c-2.31-4.11-5.05-7.98-8.23-11.47c-3.19-3.47-6.91-6.51-11.13-8.69
			C659.8,640.13,655.09,638.93,650.34,638.53z M650.35,638.34c4.78,0.35,9.52,1.49,13.9,3.53c2.19,1,4.3,2.21,6.27,3.62
			c1.98,1.4,3.87,2.93,5.59,4.64c3.48,3.38,6.44,7.3,8.9,11.48c2.43,4.21,4.52,8.57,5.98,13.29c0.16,0.53-0.13,1.1-0.67,1.26
			c-0.33,0.1-0.68,0.03-0.93-0.18l-0.03-0.02c-1.98-1.61-4.05-3.09-6.24-4.36c-2.18-1.26-4.5-2.27-6.92-2.78
			c-2.41-0.51-4.92-0.54-7.28,0.14c-2.35,0.68-4.56,1.9-6.48,3.51c-1.93,1.61-3.62,3.53-5.13,5.58c-1.53,2.05-2.88,4.24-4.12,6.5
			c-2.47,4.53-4.52,9.31-6.27,14.18c-0.05,0.15-0.2,0.24-0.35,0.22c-1.32-0.18-2.63-0.4-3.93-0.72c-1.3-0.32-2.59-0.71-3.8-1.37
			c-0.3-0.17-0.59-0.36-0.87-0.59c-0.28-0.27-0.5-0.59-0.63-0.91c-0.29-0.65-0.44-1.31-0.56-1.98c-0.21-1.33-0.3-2.66-0.36-3.99
			c-0.09-2.66-0.05-5.31-0.04-7.95c0-1.32,0.01-2.64-0.03-3.95c-0.02-0.65-0.05-1.3-0.11-1.94c-0.06-0.62-0.15-1.29-0.33-1.75
			c-0.09-0.2-0.16-0.26-0.34-0.34c-0.18-0.07-0.44-0.12-0.73-0.13c-0.59-0.02-1.25,0.03-1.94,0.04c-1.35,0.03-2.98-0.15-4.23-1.16
			c-1.24-0.99-1.9-2.41-2.29-3.76c-0.38-1.37-0.54-2.74-0.62-4.1c-0.09-1.37-0.03-2.71-0.03-4c0-1.3-0.05-2.6-0.16-3.9
			c-0.2-2.57-0.6-5.17-1.62-7.45l-0.02-0.04c-0.11-0.26-0.04-0.55,0.15-0.73c3.56-3.25,7.59-6.11,12.1-7.86
			C640.7,638.64,645.57,638,650.35,638.34z"/>
	</g>
	<g>
		<path class="st5" d="M604.85,742.52c5.12,1.63,10.92,1.93,16.01,0.25c5.17-1.59,9.38-5.29,12.33-9.74c1.5-2.22,2.7-4.65,3.7-7.16
			c0.54-1.24,0.93-2.54,1.38-3.82c0.38-1.31,0.75-2.59,1.11-3.94c1.41-5.37,2.91-10.72,4.64-16.02c1.75-5.29,3.71-10.54,6.19-15.58
			c2.49-5.02,5.46-9.92,9.57-13.92c2.06-1.98,4.47-3.68,7.19-4.68c2.72-1.02,5.7-1.26,8.52-0.77c2.83,0.46,5.47,1.57,7.93,2.92
			c2.49,1.31,4.71,3.04,6.9,4.76l-0.72,0.47c-1.24-3.96-2.97-7.81-4.98-11.46c-2.02-3.66-4.4-7.11-7.15-10.23
			c-1.37-1.56-2.82-3.05-4.39-4.4c-1.54-1.38-3.2-2.62-4.92-3.74c-3.46-2.22-7.25-3.9-11.23-4.82c-3.96-0.94-8.09-1.32-12.1-0.85
			c-4,0.49-7.88,1.74-11.34,3.82c-3.5,2.01-6.57,4.76-9.43,7.71c-2.85,2.98-5.48,6.22-8.17,9.47c-2.72,3.23-5.49,6.49-8.75,9.4
			c-1.64,1.44-3.39,2.81-5.34,3.9c-1.95,1.1-4.06,1.96-6.27,2.48l-1.67,0.32c-0.48,0.1-0.89,0.14-1.3,0.29
			c-0.81,0.25-1.54,0.65-2.14,1.21c-1.22,1.1-1.93,2.86-2.3,4.74c-0.36,1.89-0.41,3.92-0.3,5.94c0.1,2.03,0.37,4.07,0.72,6.11
			c0.71,4.07,1.75,8.11,2.94,12.12c1.17,4.01,2.49,7.99,3.92,11.93C598.25,727.08,601.46,734.93,604.85,742.52z M604.64,742.74
			c-2.08-3.78-3.9-7.5-5.73-11.33c-1.82-3.8-3.51-7.67-5.12-11.57c-3.2-7.81-6.1-15.79-7.8-24.18c-0.42-2.1-0.75-4.23-0.92-6.4
			c-0.17-2.17-0.19-4.38,0.18-6.64c0.2-1.12,0.49-2.26,0.97-3.37c0.47-1.11,1.18-2.18,2.11-3.06c0.93-0.89,2.08-1.54,3.27-1.92
			c0.58-0.22,1.22-0.31,1.77-0.42l1.42-0.29c1.88-0.47,3.69-1.22,5.39-2.21c1.7-0.99,3.28-2.23,4.81-3.56
			c3.04-2.68,5.74-5.85,8.45-9.04c2.72-3.19,5.45-6.45,8.46-9.51c3.02-3.03,6.33-5.92,10.17-8.06c3.79-2.21,8.11-3.54,12.47-3.94
			c4.37-0.39,8.74,0.12,12.92,1.23c4.19,1.13,8.12,3.08,11.65,5.53c3.52,2.47,6.64,5.45,9.34,8.75c1.36,1.64,2.6,3.37,3.76,5.14
			c1.18,1.76,2.26,3.59,3.25,5.46c1.98,3.75,3.7,7.61,4.97,11.69c0.07,0.24-0.06,0.49-0.3,0.56c-0.14,0.04-0.29,0.01-0.41-0.07
			l-0.02-0.02c-2.17-1.67-4.36-3.35-6.79-4.6c-2.41-1.26-4.98-2.24-7.64-2.61c-2.65-0.36-5.36-0.02-7.79,1.01
			c-2.44,1.02-4.58,2.67-6.43,4.59c-3.71,3.88-6.35,8.73-8.63,13.67c-2.27,4.97-4.17,10.12-5.9,15.34
			c-1.76,5.21-3.29,10.52-4.78,15.83c-0.38,1.33-0.81,2.7-1.23,4.03c-0.5,1.32-0.93,2.67-1.53,3.96c-0.53,1.31-1.19,2.58-1.84,3.84
			c-0.72,1.23-1.44,2.46-2.29,3.61c-1.66,2.32-3.63,4.45-5.95,6.16c-2.3,1.73-4.93,3-7.69,3.73c-1.38,0.37-2.79,0.6-4.2,0.7
			c-1.41,0.12-2.83,0.1-4.23-0.02C609.99,744.52,607.3,743.91,604.64,742.74z"/>
	</g>
	<path class="st3" d="M573.27,335.95l-112.67-28.23c0,0,46.46,6.12,11.93-29.82c-34.53-35.94-64.51-32.4-64.51-32.4
		c5.61,10.56,3.3,35.32-0.66,66.02c-3.96,30.7,11.88,35.98,11.88,35.98c-19.48,29.38-18.52,62.22-18.52,62.22
		c-7.95,3.57-19.8-2.27-19.8-2.27c-0.65,7.3,5.52,9.58,5.52,9.58c-17.85,0.49-21.26,15.1-21.26,15.1c4.87-2.92,9.99-1.66,9.99-1.66
		c-13.22,8.72-8.2,23.27-8.2,23.27c2.91-6.08,8.15-6.64,8.15-6.64c-6.75,13.96-1.8,32.42,19.81,47.28
		c17.76,12.21,33.78,23.47,33.78,23.47c-42.96-10.07-37.59,73.84-48.33,86.6c-10.74,12.75-22.82,53.03-22.82,53.03h48
		c0,0,19.87,100.99,112.39,107.26c0,0,5.28,26.5,12.61,37.49c7.33,10.99,8.06,22.72,28.22,24.55c20.15,1.83,17.96,2.2,24.55-22.35
		c6.6-24.55,23.66-55.52,25.56-85.22c1.9-29.7-16.65-41.3-26.97-61.73v-21.32c-12.34-110.98-72.78-104.71-20.09-108.88
		c23.89-1.89,44.41-13.05,59.59-35.09c3.56-5.18,6.5,5.24,6.32,13.37c9.93-14.45,0.29-28.33,0.29-28.33
		c0.48-1.43,11.38-0.22,17.43,11.36c4.76-21.13-19.05-33.5-16.07-33.11c11.21,1.48,19.17-1.29,20.27-3.69
		c0.86-1.86-5.12-0.29-7.42-4.19c20.51,0.95,31-36.25,31.96-76.79c0.95-40.54,19.56-45.79,19.56-45.79
		C640.33,287.34,573.27,335.95,573.27,335.95z"/>
	<path class="st4" d="M506.49,313.55c0,0-51.69,13.9-22.98,44.31c0,0,2.34-22.79,59.42-23.7
		C565.86,333.79,506.49,313.55,506.49,313.55z"/>
	<path class="st4" d="M674.09,374.34h-81.74c0,0,15.46,50.04-3.25,91.89c-25.21,56.39-130.33,51.62-130.33,51.62
		c13.68,6.55,29.53,10.06,43.62,11.91c19.62,2.58,36.51,15.12,44.18,33.36c8.69,20.67,17.47,48.22,17.14,74.56
		c-0.66,51.69,24.52,36.45,21.87,88.14c-2.45,47.86-22.39,76.96-20.13,101.53c13.06,0.94,12.12-1.51,17.88-22.93
		c6.6-24.55,23.66-55.52,25.56-85.22c1.9-29.7-16.65-41.3-26.97-61.73v-21.32c-8.66-77.91-41.03-98.03-41.32-104.55
		c-0.12-2.77,5.53-3.08,21.23-4.33c23.89-1.89,44.41-13.05,59.59-35.09c3.56-5.18,6.5,5.24,6.32,13.37
		c9.93-14.45,0.29-28.33,0.29-28.33c0.48-1.43,11.38-0.22,17.43,11.36c4.76-21.13-19.05-33.5-16.07-33.11
		c11.21,1.48,19.17-1.29,20.27-3.69c0.86-1.86-5.12-0.29-7.42-4.19C662.15,448.53,672.62,413.49,674.09,374.34z"/>
	<g>
		<path class="st5" d="M573.3,336.1l-56.38-13.75l-56.51-13.86c-0.42-0.1-0.68-0.53-0.58-0.95c0.1-0.39,0.47-0.64,0.85-0.6l0.02,0
			c2.59,0.29,5.27,0.41,7.89,0.35c2.63-0.06,5.26-0.31,7.78-0.9c2.48-0.61,4.97-1.59,6.54-3.4c0.77-0.9,1.25-1.98,1.41-3.16
			c0.15-1.18,0.01-2.41-0.31-3.63c-0.66-2.43-1.93-4.75-3.36-6.93c-1.43-2.19-3.08-4.27-4.81-6.27c-1.74-2-3.54-3.95-5.44-5.81
			c-1.86-1.9-3.8-3.72-5.77-5.5c-7.89-7.11-16.64-13.29-26.18-17.86c-4.77-2.27-9.73-4.15-14.84-5.43
			c-2.55-0.64-5.14-1.14-7.74-1.46c-2.58-0.3-5.28-0.47-7.73-0.26l0.9-1.71c1.1,2.13,1.8,4.37,2.27,6.62
			c0.48,2.25,0.76,4.52,0.95,6.78c0.36,4.52,0.35,9.03,0.19,13.52c-0.34,8.98-1.24,17.89-2.25,26.78
			c-0.51,4.44-1.06,8.88-1.62,13.31c-0.51,4.36-0.77,8.77-0.4,13.1c0.34,4.33,1.25,8.63,3.13,12.44c0.93,1.91,2.1,3.68,3.52,5.21
			c0.71,0.76,1.48,1.46,2.31,2.07c0.41,0.3,0.84,0.59,1.27,0.84c0.41,0.24,0.93,0.5,1.26,0.62l0.02,0.01
			c0.69,0.25,1.05,1.01,0.8,1.7c-0.04,0.1-0.08,0.19-0.14,0.28c-2.96,4.52-5.58,9.28-7.82,14.21c-2.24,4.93-4.12,10.03-5.65,15.23
			c-1.52,5.21-2.71,10.51-3.54,15.87c-0.82,5.34-1.36,10.82-1.33,16.14l0,0.04c0,0.52-0.31,0.97-0.76,1.17
			c-1.74,0.77-3.6,1.13-5.42,1.23c-1.82,0.1-3.62-0.05-5.38-0.35c-1.76-0.29-3.47-0.73-5.15-1.26c-1.68-0.54-3.29-1.15-4.94-1.93
			l1.82-1.02c-0.16,1.77,0.12,3.52,0.97,4.99c0.42,0.73,0.97,1.4,1.61,1.96c0.62,0.55,1.44,1.07,2.1,1.35l0.05,0.02
			c0.64,0.26,0.94,0.99,0.67,1.63c-0.19,0.47-0.64,0.75-1.12,0.77c-2.24,0.06-4.47,0.37-6.59,0.97c-2.13,0.59-4.15,1.53-5.95,2.77
			c-1.81,1.23-3.39,2.79-4.69,4.57c-0.65,0.89-1.23,1.83-1.72,2.81c-0.49,0.97-0.93,2.05-1.18,2.99l-1.76-1.28
			c0.82-0.46,1.66-0.89,2.55-1.19c0.88-0.32,1.79-0.54,2.71-0.69c0.92-0.15,1.85-0.21,2.78-0.2c0.94,0.02,1.82,0.09,2.83,0.31
			c0.61,0.13,1,0.73,0.87,1.35c-0.07,0.3-0.24,0.55-0.48,0.71l-0.03,0.02c-1.76,1.16-3.35,2.55-4.68,4.16
			c-1.31,1.62-2.33,3.46-3,5.43c-0.66,1.98-0.99,4.07-1,6.18c-0.01,2.09,0.27,4.28,0.85,6.2l-1.94-0.11
			c0.44-0.87,0.93-1.72,1.53-2.5c0.57-0.8,1.29-1.5,2.03-2.15c0.76-0.64,1.61-1.18,2.5-1.61c0.92-0.43,1.8-0.76,2.92-0.93
			c0.54-0.08,1.04,0.29,1.12,0.83c0.03,0.21,0,0.41-0.09,0.58l-0.02,0.03c-1.72,3.51-2.66,7.39-2.74,11.3
			c-0.09,3.91,0.67,7.84,2.08,11.52c2.84,7.4,8.09,13.72,14.17,18.88c3.03,2.61,6.37,4.84,9.69,7.18l9.95,6.97l19.9,13.94
			c0.29,0.2,0.36,0.6,0.16,0.89c-0.15,0.22-0.43,0.31-0.67,0.26c-3.35-0.77-6.82-1.11-10.2-0.58c-1.68,0.26-3.33,0.73-4.9,1.39
			c-1.56,0.68-3.04,1.56-4.4,2.58c-2.75,2.05-4.99,4.73-6.88,7.62c-1.88,2.9-3.42,6.03-4.73,9.26c-2.62,6.46-4.4,13.24-5.9,20.07
			c-1.48,6.84-2.65,13.75-3.83,20.66c-0.59,3.46-1.19,6.92-1.88,10.36c-0.7,3.44-1.46,6.89-2.66,10.24
			c-0.61,1.66-1.36,3.33-2.53,4.76c-1.1,1.33-2.07,2.77-3,4.24c-1.83,2.96-3.43,6.07-4.93,9.23c-2.98,6.33-5.56,12.84-7.98,19.41
			c-2.4,6.58-4.64,13.22-6.69,19.91l-0.49-0.66l48-0.07c0.28,0,0.51,0.19,0.57,0.45l0,0.01c1.49,6.73,3.63,13.36,6.05,19.84
			c2.45,6.48,5.27,12.82,8.47,18.96c6.4,12.27,14.34,23.78,23.95,33.72c9.6,9.93,20.94,18.2,33.48,23.93
			c6.26,2.89,12.81,5.11,19.5,6.76c6.7,1.61,13.55,2.61,20.43,3.08c0.49,0.03,0.88,0.39,0.98,0.85l0,0.01
			c1.18,5.62,2.6,11.23,4.22,16.75c1.64,5.51,3.48,10.99,5.95,16.1c0.62,1.28,1.3,2.51,2.04,3.68c0.76,1.18,1.6,2.47,2.32,3.74
			c1.47,2.55,2.75,5.16,4.16,7.64c1.4,2.47,2.96,4.8,4.92,6.7c1.95,1.9,4.29,3.36,6.87,4.34c2.57,0.98,5.33,1.57,8.13,1.88
			c2.81,0.29,5.76,0.55,8.59,0.74c1.42,0.09,2.84,0.15,4.19,0.08c1.34-0.08,2.66-0.25,3.65-0.8c2.01-0.99,3.05-3.69,3.92-6.33
			c0.86-2.69,1.56-5.5,2.29-8.29c0.73-2.81,1.44-5.6,2.23-8.43c1.6-5.63,3.54-11.13,5.56-16.58c4.04-10.89,8.39-21.61,11.99-32.56
			c3.59-10.93,6.51-22.13,7.31-33.51c0.39-5.66,0.1-11.34-1.23-16.81c-1.29-5.48-3.57-10.68-6.47-15.56
			c-5.8-9.77-13.8-18.46-19.15-29.1c-0.11-0.23-0.17-0.48-0.17-0.72l0.01-21.32l0.01,0.17c-2.09-18.68-5.82-37.26-12.39-54.84
			c-3.28-8.78-7.29-17.28-12.17-25.26c-2.43-3.99-5.08-7.85-7.92-11.57c-1.42-1.87-2.88-3.7-4.36-5.55
			c-0.74-0.93-1.48-1.86-2.21-2.85c-0.71-1.02-1.47-1.97-2.01-3.48c-0.12-0.39-0.23-0.85-0.21-1.39c0.01-0.54,0.2-1.17,0.54-1.64
			c0.69-0.94,1.47-1.25,2.12-1.54c1.34-0.51,2.55-0.72,3.77-0.92c2.42-0.37,4.79-0.58,7.16-0.79l7.08-0.57
			c2.38-0.17,4.66-0.38,6.97-0.7c9.2-1.26,18.18-4.1,26.3-8.59c8.13-4.46,15.34-10.53,21.39-17.61c1.5-1.78,2.95-3.6,4.33-5.48
			l1.02-1.42l0.51-0.71c0.2-0.28,0.42-0.58,0.7-0.87c0.28-0.29,0.61-0.58,1.07-0.81c0.44-0.24,1.08-0.39,1.69-0.29
			c0.61,0.09,1.1,0.37,1.45,0.66c0.36,0.29,0.63,0.6,0.86,0.9c0.87,1.22,1.29,2.42,1.68,3.63c0.37,1.21,0.64,2.41,0.85,3.62
			c0.41,2.42,0.61,4.86,0.56,7.33l-2.51-0.81c1.35-1.97,2.43-4.1,3.17-6.35c0.72-2.25,1.09-4.6,1.09-6.97
			c-0.02-2.37-0.37-4.74-1.05-7.02c-0.67-2.26-1.67-4.55-2.89-6.45l-0.05-0.07c-0.22-0.35-0.25-0.77-0.12-1.13
			c0.22-0.59,0.6-0.84,0.84-0.98c0.26-0.15,0.46-0.21,0.65-0.26c0.37-0.1,0.68-0.13,0.98-0.14c0.59-0.02,1.12,0.02,1.64,0.09
			c1.04,0.15,2.02,0.42,2.97,0.75c1.89,0.68,3.65,1.64,5.25,2.8c3.21,2.32,5.76,5.46,7.56,8.92l-2.47,0.32
			c0.61-2.7,0.77-5.48,0.41-8.21c-0.35-2.73-1.2-5.39-2.44-7.88c-2.49-5-6.39-9.25-10.75-12.92l-1.67-1.38l-0.86-0.73
			c-0.15-0.13-0.3-0.26-0.49-0.45l-0.16-0.18c-0.06-0.08-0.13-0.15-0.25-0.4l-0.04-0.09c-0.02-0.05-0.04-0.11-0.05-0.17
			c-0.01-0.06-0.02-0.1-0.03-0.19c-0.01-0.1-0.01-0.21,0-0.31c0.01-0.18,0.16-0.55,0.31-0.71c0.08-0.09,0.17-0.17,0.27-0.24
			c0.1-0.07,0.13-0.08,0.21-0.12c0.06-0.03,0.14-0.06,0.19-0.07l0.12-0.03c0.09-0.02,0.16-0.02,0.19-0.03
			c0.11-0.01,0.18-0.01,0.23,0l1.16,0.14l1.06,0.11c0.71,0.06,1.41,0.11,2.12,0.14c2.82,0.12,5.66-0.01,8.4-0.53
			c1.36-0.26,2.71-0.62,3.94-1.12c0.61-0.25,1.2-0.55,1.68-0.88c0.25-0.17,0.45-0.35,0.6-0.51c0.08-0.08,0.13-0.16,0.16-0.21
			c0.07-0.09-0.04-0.04,0,0.3c0.03,0.16,0.12,0.35,0.21,0.43c0.07,0.08,0.12,0.1,0.11,0.09c-0.01,0-0.1-0.05-0.24-0.08
			c-0.26-0.07-0.61-0.13-0.96-0.2c-0.72-0.13-1.49-0.27-2.28-0.52c-0.78-0.24-1.58-0.58-2.32-1.1c-0.74-0.5-1.38-1.2-1.85-1.98
			c-0.36-0.6-0.16-1.38,0.44-1.73c0.22-0.13,0.47-0.19,0.71-0.18c2.74,0.13,5.46-0.5,7.87-1.85c2.42-1.32,4.52-3.27,6.33-5.47
			c3.61-4.43,6.13-9.78,8.15-15.24c3.99-11.01,6.03-22.7,7.31-34.4c0.62-5.86,1.01-11.75,1.19-17.65
			c0.13-5.94,0.65-11.93,1.75-17.82c1.14-5.87,2.88-11.7,5.75-17.03c1.43-2.66,3.18-5.18,5.28-7.39c1.05-1.11,2.2-2.13,3.45-3.03
			c1.27-0.9,2.54-1.68,4.15-2.23l-0.25,1.44c-8.65-6.16-18.57-10.53-29-12.65c-10.42-2.17-21.24-2.19-31.8-0.64
			c-10.57,1.55-20.9,4.6-30.81,8.64c-4.95,2.02-9.81,4.29-14.55,6.8c-2.37,1.25-4.71,2.56-7.01,3.93c-1.15,0.68-2.29,1.38-3.42,2.1
			l-1.69,1.09L573.3,336.1z M573.25,335.8c0.08-0.08,0.21-0.16,0.35-0.27l0.41-0.29l0.83-0.57l1.68-1.11
			c1.13-0.73,2.26-1.45,3.41-2.15c2.29-1.4,4.62-2.73,6.98-4.02c4.72-2.56,9.57-4.89,14.52-6.98c9.9-4.17,20.26-7.35,30.91-9.04
			c10.63-1.67,21.6-1.8,32.22,0.31c10.62,2.08,20.78,6.46,29.66,12.67c0.37,0.26,0.45,0.76,0.2,1.13c-0.1,0.14-0.24,0.25-0.4,0.3
			l-0.05,0.02c-1.2,0.42-2.5,1.18-3.62,2.01c-1.15,0.84-2.21,1.81-3.19,2.85c-1.96,2.1-3.61,4.5-4.96,7.06
			c-2.72,5.13-4.37,10.8-5.44,16.55c-1.03,5.77-1.49,11.62-1.58,17.52c-0.14,5.94-0.49,11.89-1.06,17.81
			c-0.58,5.92-1.41,11.83-2.57,17.68c-1.16,5.85-2.64,11.66-4.68,17.31c-2.06,5.62-4.62,11.18-8.48,15.98
			c-1.94,2.38-4.24,4.56-7.02,6.1c-2.76,1.56-6.01,2.35-9.19,2.2l1.15-1.91c0.56,0.94,1.51,1.57,2.73,1.93
			c0.61,0.19,1.27,0.31,1.98,0.44c0.36,0.07,0.73,0.13,1.17,0.24c0.22,0.06,0.47,0.13,0.78,0.29c0.15,0.08,0.35,0.21,0.55,0.41
			c0.21,0.21,0.4,0.56,0.45,0.91c0.09,0.7-0.16,1.11-0.28,1.33c-0.14,0.27-0.31,0.49-0.48,0.67c-0.34,0.38-0.69,0.67-1.05,0.92
			c-0.71,0.5-1.44,0.85-2.17,1.16c-1.46,0.6-2.95,1-4.44,1.28c-2.99,0.57-6,0.71-8.99,0.59c-0.75-0.03-1.49-0.08-2.24-0.14
			l-1.11-0.11l-1.01-0.12c0.04-0.02,0.06,0.05,0.47-0.1c0.06-0.03,0.09-0.04,0.18-0.1c0.09-0.06,0.17-0.14,0.24-0.22
			c0.15-0.14,0.28-0.49,0.29-0.65c0.01-0.09,0.01-0.19,0-0.28c-0.01-0.08-0.01-0.1-0.03-0.16c-0.01-0.05-0.03-0.1-0.04-0.13
			l-0.03-0.06c-0.08-0.16-0.09-0.16-0.1-0.17c0,0,0.01,0.01,0.02,0.02c0.07,0.07,0.19,0.18,0.31,0.29l0.81,0.68l1.7,1.4
			c4.52,3.8,8.7,8.29,11.42,13.74c1.36,2.72,2.31,5.67,2.71,8.71c0.4,3.04,0.23,6.16-0.44,9.14c-0.16,0.71-0.87,1.16-1.58,1
			c-0.39-0.09-0.71-0.35-0.88-0.68c-1.64-3.14-3.93-5.94-6.77-7.98c-1.42-1.02-2.96-1.86-4.58-2.43c-0.81-0.28-1.64-0.51-2.44-0.62
			c-0.4-0.06-0.8-0.08-1.14-0.07c-0.17,0.01-0.32,0.03-0.4,0.05c-0.04,0.01-0.06,0.02,0-0.01c0.04-0.03,0.23-0.12,0.37-0.49
			l-0.17-1.2c1.5,2.32,2.5,4.68,3.27,7.21c0.75,2.51,1.16,5.14,1.18,7.79c0.01,2.65-0.4,5.3-1.21,7.82
			c-0.83,2.52-2.03,4.89-3.51,7.06c-0.43,0.63-1.28,0.79-1.91,0.36c-0.39-0.27-0.6-0.71-0.6-1.15l0-0.02
			c0.04-2.26-0.14-4.56-0.53-6.79c-0.2-1.12-0.45-2.22-0.77-3.28c-0.32-1.04-0.74-2.09-1.26-2.79c-0.24-0.35-0.55-0.51-0.49-0.47
			c0.02,0.01,0.05-0.02-0.02,0.02c-0.07,0.03-0.2,0.13-0.33,0.27c-0.13,0.14-0.27,0.31-0.41,0.51l-0.52,0.74l-1.04,1.47
			c-1.41,1.94-2.9,3.83-4.44,5.67c-6.2,7.33-13.66,13.68-22.11,18.36c-8.42,4.73-17.79,7.66-27.32,8.98
			c-2.37,0.33-4.8,0.55-7.14,0.73l-7.06,0.58c-2.34,0.21-4.69,0.42-6.94,0.78c-1.11,0.18-2.24,0.4-3.11,0.74
			c-0.42,0.16-0.75,0.4-0.75,0.45c-0.01,0.02,0-0.02,0,0.03c0,0.05,0.01,0.18,0.07,0.35c0.24,0.73,0.91,1.71,1.57,2.61
			c0.68,0.92,1.41,1.83,2.14,2.75c1.47,1.84,2.97,3.7,4.41,5.6c2.9,3.79,5.62,7.74,8.11,11.82c4.99,8.16,9.1,16.84,12.45,25.77
			c6.7,17.89,10.49,36.7,12.62,55.57c0.01,0.06,0.01,0.12,0.01,0.17l0.01,21.32l-0.17-0.72c2.54,5.06,5.76,9.8,9.12,14.49
			c3.35,4.69,6.85,9.38,9.85,14.47c3.01,5.08,5.43,10.61,6.78,16.43c1.39,5.81,1.68,11.83,1.26,17.72
			c-0.86,11.77-3.89,23.17-7.54,34.21c-3.67,11.06-8.07,21.81-12.12,32.63c-2.02,5.41-3.95,10.84-5.53,16.35
			c-0.78,2.75-1.5,5.57-2.24,8.36c-0.74,2.8-1.45,5.62-2.36,8.45c-0.47,1.41-0.98,2.84-1.74,4.25c-0.75,1.38-1.91,2.85-3.52,3.63
			c-1.58,0.83-3.24,0.99-4.76,1.08c-1.54,0.06-3.02-0.01-4.49-0.11c-2.95-0.22-5.77-0.48-8.72-0.8c-2.95-0.34-5.91-0.98-8.75-2.08
			c-2.83-1.09-5.51-2.77-7.69-4.93c-2.2-2.15-3.86-4.71-5.3-7.28c-1.44-2.57-2.7-5.18-4.11-7.65c-0.71-1.26-1.44-2.39-2.24-3.66
			c-0.8-1.28-1.51-2.59-2.15-3.92c-2.55-5.34-4.37-10.9-6-16.5c-1.61-5.6-3-11.24-4.17-16.96l0.98,0.86
			c-6.99-0.52-13.95-1.57-20.77-3.25c-6.8-1.72-13.47-4.02-19.82-7c-12.74-5.91-24.21-14.39-33.88-24.5
			c-9.68-10.13-17.62-21.81-24.01-34.22c-3.19-6.21-5.99-12.62-8.42-19.16c-2.41-6.56-4.51-13.21-5.99-20.07l0.57,0.47l-48-0.07
			c-0.28,0-0.51-0.23-0.51-0.51c0-0.05,0.01-0.11,0.02-0.15c2.07-6.72,4.33-13.36,6.75-19.96c2.44-6.58,5.04-13.12,8.05-19.48
			c1.52-3.17,3.14-6.3,5-9.31c0.95-1.49,1.94-2.96,3.08-4.33c1.06-1.29,1.77-2.87,2.36-4.5c1.16-3.26,1.91-6.69,2.59-10.11
			c0.68-3.43,1.26-6.88,1.85-10.34c1.16-6.91,2.31-13.84,3.78-20.72c1.49-6.87,3.25-13.71,5.89-20.27c1.32-3.28,2.88-6.47,4.8-9.46
			c1.94-2.97,4.25-5.77,7.13-7.93c1.43-1.08,2.98-2.02,4.64-2.74c1.66-0.71,3.41-1.2,5.18-1.49c3.57-0.59,7.2-0.25,10.68,0.52
			l-0.52,1.15l-20-13.78l-10-6.89c-3.31-2.3-6.74-4.55-9.87-7.2c-6.26-5.23-11.76-11.71-14.82-19.48
			c-1.51-3.86-2.36-8.03-2.29-12.22c0.06-4.19,1.04-8.36,2.86-12.14l1.02,1.44c-0.68,0.11-1.53,0.4-2.25,0.76
			c-0.74,0.37-1.44,0.82-2.07,1.36c-0.62,0.55-1.21,1.13-1.7,1.82c-0.51,0.66-0.92,1.4-1.3,2.16l-0.03,0.05
			c-0.26,0.51-0.88,0.71-1.39,0.45c-0.26-0.13-0.44-0.36-0.52-0.62c-0.72-2.31-1-4.56-1.02-6.89c-0.01-2.31,0.34-4.65,1.07-6.87
			c0.74-2.22,1.88-4.31,3.34-6.14c1.48-1.82,3.24-3.38,5.17-4.66l0.36,2.07c-0.68-0.14-1.53-0.22-2.31-0.22
			c-0.8-0.01-1.6,0.05-2.38,0.19c-1.57,0.24-3.07,0.81-4.42,1.6l-0.04,0.02c-0.56,0.33-1.27,0.14-1.6-0.42
			c-0.16-0.28-0.2-0.6-0.12-0.89c0.34-1.31,0.8-2.39,1.35-3.52c0.54-1.11,1.18-2.16,1.9-3.17c1.44-2,3.21-3.78,5.26-5.18
			c2.03-1.41,4.31-2.46,6.67-3.13c2.36-0.68,4.79-1.01,7.21-1.08l-0.4,2.42c-1.16-0.48-2.02-1.06-2.89-1.8
			c-0.84-0.73-1.58-1.61-2.14-2.59c-1.15-1.97-1.51-4.31-1.31-6.46c0.06-0.7,0.68-1.21,1.37-1.14c0.15,0.01,0.29,0.05,0.42,0.11
			l0.02,0.01c1.44,0.68,3.03,1.28,4.59,1.78c1.58,0.5,3.18,0.9,4.79,1.17c1.61,0.27,3.23,0.39,4.82,0.3
			c1.58-0.09,3.13-0.41,4.51-1.02l-0.76,1.21c-0.04-5.64,0.5-11.12,1.32-16.61c0.83-5.48,2.04-10.89,3.57-16.22
			c1.55-5.32,3.46-10.54,5.75-15.6c2.29-5.05,5-9.92,8.06-14.56l0.68,1.99c-0.72-0.26-1.2-0.53-1.75-0.84
			c-0.53-0.31-1.03-0.65-1.52-1.01c-0.97-0.72-1.86-1.53-2.66-2.4c-1.62-1.75-2.92-3.75-3.93-5.86c-2.06-4.22-2.99-8.83-3.34-13.38
			c-0.37-4.57-0.09-9.13,0.45-13.62c0.57-4.43,1.13-8.85,1.65-13.28c1.03-8.85,1.95-17.72,2.31-26.58c0.17-4.43,0.2-8.86-0.14-13.24
			c-0.37-4.34-1.01-8.78-2.91-12.5l-0.03-0.05c-0.29-0.56-0.06-1.25,0.5-1.53c0.14-0.07,0.28-0.11,0.43-0.12
			c2.88-0.23,5.55-0.02,8.29,0.29c2.71,0.34,5.39,0.87,8.02,1.54c5.27,1.34,10.37,3.28,15.25,5.62
			c9.76,4.73,18.62,11.11,26.58,18.38c1.98,1.82,3.94,3.68,5.81,5.62c1.91,1.9,3.73,3.9,5.49,5.95c1.75,2.06,3.43,4.2,4.91,6.5
			c1.47,2.3,2.81,4.74,3.55,7.49c0.35,1.37,0.52,2.84,0.32,4.33c-0.2,1.48-0.86,2.93-1.85,4.06c-0.99,1.13-2.22,1.95-3.5,2.56
			c-1.28,0.62-2.62,1.03-3.97,1.35c-2.7,0.62-5.43,0.84-8.14,0.89c-2.72,0.04-5.41-0.09-8.13-0.42l0.3-1.55l56.15,14.37
			L573.25,335.8z"/>
	</g>
	<path class="st8" d="M384.43,681.1c0,0,4.71,11.8,16.8,10.88c13.05-0.99,19.8-21.52,19.8-26.46c0-4.95-12.27-11.38-18.3-7.91
		C396.7,661.07,384.43,681.1,384.43,681.1z"/>
	<g>
		<path class="st5" d="M384.57,681.11c2.29,3.72,5.55,7.11,9.49,8.67c1.96,0.81,4.07,1.12,6.18,1.04c1.07,0.01,2.07-0.16,3.08-0.39
			c0.99-0.3,1.98-0.63,2.92-1.11c3.77-1.91,7.01-5.26,9.31-9.09c2.29-3.85,3.85-8.2,4.52-12.57c0.13-1.09,0.28-2.21-0.07-2.95
			c-0.34-0.83-1.02-1.62-1.77-2.31c-1.55-1.37-3.45-2.46-5.44-3.23c-1.98-0.77-4.1-1.24-6.1-1.16c-0.99,0.06-1.94,0.23-2.77,0.59
			c-0.79,0.38-1.58,1.02-2.37,1.73c-3.15,2.91-5.95,6.53-8.74,10.05c-1.39,1.78-2.76,3.58-4.13,5.38l-2.06,2.7
			C385.93,679.34,385.22,680.33,384.57,681.11z M384.3,681.09c2.07-4.2,4.31-8.07,6.8-11.93c2.5-3.83,5.11-7.57,8.53-10.92
			c0.88-0.81,1.87-1.63,3.13-2.23c1.26-0.54,2.58-0.76,3.85-0.77c2.54,0.01,4.91,0.67,7.12,1.62c2.2,0.96,4.26,2.24,5.98,4.02
			c0.83,0.9,1.62,1.93,2,3.27c0.2,0.65,0.2,1.44,0.11,2.02c-0.08,0.61-0.2,1.19-0.34,1.75c-0.54,2.27-1.38,4.41-2.24,6.54
			c-0.88,2.11-1.86,4.18-2.96,6.19c-1.11,2-2.3,3.99-3.75,5.82c-1.44,1.83-3.16,3.52-5.24,4.78c-1.05,0.61-2.18,1.12-3.37,1.46
			c-1.19,0.3-2.45,0.52-3.65,0.46c-2.41,0.04-4.89-0.42-7.06-1.51c-2.18-1.06-4.08-2.6-5.56-4.43c-0.74-0.91-1.41-1.87-1.97-2.89
			C385.12,683.29,384.66,682.32,384.3,681.09z"/>
	</g>
	<path class="st6" d="M374.6,676.73c0,0,4.71,11.8,16.8,10.88c13.05-0.99,19.8-21.52,19.8-26.46c0-4.95-12.27-11.38-18.3-7.91
		C386.87,656.69,374.6,676.73,374.6,676.73z"/>
	<g>
		<path class="st5" d="M374.74,676.74c2.29,3.72,5.55,7.11,9.49,8.67c1.96,0.81,4.08,1.12,6.18,1.04c1.07,0.01,2.07-0.16,3.08-0.39
			c0.99-0.3,1.98-0.63,2.92-1.11c3.77-1.91,7.01-5.26,9.31-9.09c2.29-3.85,3.85-8.2,4.52-12.57c0.13-1.09,0.28-2.21-0.07-2.95
			c-0.34-0.83-1.02-1.62-1.77-2.31c-1.55-1.37-3.45-2.46-5.44-3.23c-1.98-0.77-4.1-1.24-6.1-1.16c-0.99,0.06-1.94,0.23-2.77,0.59
			c-0.79,0.38-1.58,1.02-2.37,1.73c-3.15,2.91-5.95,6.53-8.74,10.05c-1.39,1.78-2.76,3.58-4.13,5.38l-2.06,2.7
			C376.1,674.96,375.39,675.95,374.74,676.74z M374.47,676.72c2.07-4.2,4.31-8.07,6.8-11.93c2.5-3.83,5.11-7.57,8.53-10.92
			c0.88-0.81,1.87-1.63,3.13-2.23c1.26-0.54,2.58-0.76,3.85-0.77c2.54,0.01,4.91,0.67,7.12,1.62c2.2,0.96,4.26,2.24,5.98,4.02
			c0.83,0.9,1.62,1.93,2,3.27c0.2,0.65,0.2,1.44,0.11,2.02c-0.08,0.61-0.2,1.19-0.34,1.75c-0.54,2.27-1.38,4.41-2.24,6.54
			c-0.88,2.11-1.86,4.18-2.96,6.19c-1.11,2-2.3,3.99-3.75,5.82c-1.44,1.83-3.16,3.52-5.24,4.78c-1.05,0.61-2.18,1.12-3.37,1.46
			c-1.19,0.3-2.45,0.52-3.65,0.46c-2.41,0.04-4.89-0.42-7.06-1.51c-2.18-1.06-4.08-2.6-5.56-4.43c-0.74-0.91-1.41-1.87-1.97-2.89
			C375.3,678.91,374.83,677.95,374.47,676.72z"/>
	</g>
	<path class="st9" d="M387.19,625.52c0,0-6.02-13.49-15.81-2.03c-13.15,15.41-17.37,40.38-14.93,48.29
		c4.14,13.41,28.32,24.83,36.27-4.85c0,0,13.7,4.8,13.7-21.78C406.42,618.59,389.89,621.5,387.19,625.52z"/>
	<g>
		<path class="st5" d="M387.18,625.67c-0.08-0.01-0.16-0.15-0.15-0.14l-0.03-0.05l-0.06-0.1l-0.12-0.21l-0.25-0.41
			c-0.18-0.27-0.36-0.53-0.55-0.79c-0.38-0.51-0.78-1.01-1.2-1.48c-0.86-0.93-1.82-1.75-2.91-2.27c-1.08-0.54-2.26-0.74-3.39-0.56
			c-1.13,0.17-2.22,0.68-3.19,1.39c-1.96,1.41-3.49,3.45-4.98,5.52c-1.49,2.06-2.82,4.23-4.03,6.47c-2.44,4.47-4.35,9.22-5.98,14.06
			c-1.62,4.84-2.94,9.83-3.6,14.91c-0.32,2.54-0.51,5.12-0.22,7.63c0.25,2.49,1.37,4.86,2.83,6.92c2.95,4.12,7.52,7.15,12.43,8.01
			c2.44,0.43,4.97,0.25,7.23-0.6c2.26-0.84,4.27-2.28,5.9-4.09c3.25-3.66,5.18-8.44,6.43-13.3c0.2-0.76,0.97-1.22,1.73-1.02
			l0.03,0.01l0.1,0.03c0.4,0.11,1.06,0.21,1.6,0.22c0.57,0.02,1.14-0.04,1.69-0.16c1.1-0.23,2.12-0.73,3-1.47
			c1.78-1.44,2.96-3.73,3.76-6.14c1.55-4.9,1.82-10.37,1.75-15.69c-0.08-2.66-0.34-5.31-0.95-7.86c-0.28-1.29-0.72-2.51-1.19-3.72
			c-0.52-1.18-1.14-2.32-1.91-3.33c-1.53-2.05-3.8-3.47-6.35-3.88c-1.27-0.22-2.6-0.15-3.88,0.15c-0.64,0.16-1.25,0.39-1.84,0.69
			c-0.29,0.15-0.57,0.32-0.84,0.52l-0.37,0.32C387.51,625.39,387.32,625.56,387.18,625.67z M387.21,625.38
			c0.07-0.16,0.08-0.26,0.18-0.37l0.36-0.39c0.26-0.24,0.54-0.47,0.83-0.67c0.59-0.4,1.24-0.7,1.9-0.95
			c1.34-0.46,2.79-0.69,4.23-0.59c2.91,0.15,5.7,1.69,7.61,3.89c0.97,1.09,1.76,2.32,2.43,3.6c0.63,1.29,1.16,2.63,1.54,4
			c0.81,2.73,1.22,5.54,1.4,8.33c0.18,2.8,0.19,5.58-0.01,8.38c-0.21,2.8-0.61,5.63-1.48,8.4c-0.92,2.73-2.28,5.56-4.8,7.58
			c-1.24,1-2.77,1.7-4.35,1.99c-0.79,0.15-1.59,0.2-2.39,0.16c-0.82-0.05-1.52-0.14-2.43-0.43l1.87-0.99
			c-1.46,5.09-3.58,10.24-7.48,14.2c-1.92,1.96-4.33,3.55-7.01,4.32c-2.67,0.81-5.51,0.77-8.14,0.17c-2.64-0.61-5.08-1.83-7.25-3.36
			c-2.16-1.54-4.08-3.42-5.61-5.58c-1.51-2.16-2.73-4.61-3.11-7.3c-0.39-2.64-0.38-5.28-0.25-7.9c0.14-2.63,0.47-5.24,0.92-7.83
			c0.45-2.59,1.01-5.17,1.77-7.69c1.47-5.06,3.58-9.94,6.2-14.53c1.33-2.29,2.81-4.49,4.44-6.58c1.66-2.03,3.39-4.15,5.76-5.65
			c1.18-0.74,2.55-1.29,4-1.4c1.45-0.14,2.92,0.31,4.09,1.04c1.19,0.73,2.14,1.72,2.95,2.78c0.4,0.53,0.76,1.09,1.08,1.67
			c0.16,0.29,0.31,0.58,0.45,0.88l0.21,0.45l0.1,0.23l0.05,0.11l0.02,0.06C387.34,625.46,387.27,625.35,387.21,625.38z"/>
	</g>
	<path class="st7" d="M517.96,720.64c-7.54-38.85-30.32-63.17-30.32-63.17c-8.37-12.22-16.06-80.47-17.81-88.21
		c-1.75-7.73-6.14-18.6-11.92-19.03c-5.78-0.43-9.91,9.53-16.55,15.92c-6.64,6.38-12.94,1.06-16.54-8.15
		c-3.6-9.22-8.53-8.39-8.53-8.39c-21.45,42.99-10.72,107.86-10.72,107.86s19.87,100.99,112.39,107.26
		C515.41,743.6,517.96,720.64,517.96,720.64z"/>
	<g>
		<path class="st5" d="M517.82,720.65c-1.38-5.72-2.84-11.41-4.87-16.95c-1.91-5.56-4.29-10.95-6.85-16.23
			c-2.56-5.28-5.51-10.37-8.71-15.28c-3.2-4.89-6.72-9.65-10.56-13.95l-0.04-0.05c-0.02-0.03-0.05-0.06-0.06-0.09
			c-2.1-3.32-3.15-6.81-4.23-10.3c-1.03-3.49-1.91-7.01-2.7-10.54c-1.59-7.06-2.93-14.16-4.15-21.28
			c-2.35-14.24-4.29-28.55-6.18-42.81l-0.41-2.64c-0.14-0.85-0.34-1.71-0.55-2.57c-0.42-1.72-0.94-3.42-1.52-5.09
			c-0.58-1.67-1.26-3.31-2.05-4.87c-0.79-1.56-1.69-3.07-2.8-4.37c-1.1-1.29-2.46-2.37-3.99-2.62c-1.53-0.32-3.09,0.49-4.4,1.55
			c-2.65,2.22-4.69,5.26-6.91,8.1c-1.11,1.43-2.24,2.86-3.48,4.19c-1.24,1.31-2.54,2.68-4.22,3.61c-1.65,0.94-3.75,1.25-5.59,0.66
			c-1.86-0.56-3.38-1.79-4.6-3.16c-1.23-1.39-2.21-2.96-3.07-4.56c-0.85-1.62-1.49-3.35-2.22-4.94c-0.76-1.59-1.69-3.11-2.93-4.32
			c-0.6-0.62-1.3-1.12-2.04-1.5c-0.72-0.37-1.61-0.59-2.3-0.53l0.37-0.27c-5.1,10.3-8.12,21.5-10.05,32.8
			c-1.91,11.32-2.63,22.82-2.66,34.3c-0.04,11.48,0.69,22.97,2.06,34.35c0.18,1.42,0.36,2.84,0.57,4.26
			c0.11,0.69,0.2,1.46,0.34,2.04l0.48,2.07c0.69,2.76,1.48,5.51,2.34,8.23c1.72,5.45,3.72,10.82,5.98,16.07
			c4.54,10.49,10,20.6,16.59,29.91c3.26,4.69,6.89,9.09,10.66,13.36c1.99,2.04,3.87,4.18,5.99,6.09c1.04,0.97,2.06,1.97,3.12,2.92
			l3.26,2.75c0.55,0.45,1.08,0.93,1.64,1.37l1.7,1.28l3.41,2.57l3.56,2.35l1.78,1.18c0.59,0.39,1.23,0.72,1.84,1.08l3.71,2.12
			c1.23,0.73,2.55,1.28,3.81,1.92c1.29,0.61,2.54,1.29,3.86,1.84l3.96,1.61c10.61,4.17,21.88,6.68,33.31,7.59l-0.9,0.95
			c-0.36-3.69-0.65-7.38-0.77-11.07c-0.13-3.69-0.15-7.39-0.05-11.08c0.09-3.69,0.25-7.37,0.5-11.05
			C517.05,727.97,517.38,724.27,517.82,720.65z M518.11,720.64c-0.31,3.71-0.5,7.35-0.62,11.03c-0.12,3.67-0.15,7.35-0.11,11.02
			c0.03,3.67,0.19,7.34,0.4,11c0.21,3.66,0.58,7.31,1.03,10.94c0.06,0.46-0.27,0.88-0.74,0.94c-0.05,0.01-0.1,0.01-0.14,0.01
			l-0.02,0c-11.59-0.62-23.15-2.9-34.05-7.04l-4.08-1.58c-1.35-0.54-2.65-1.22-3.98-1.82c-1.31-0.64-2.67-1.19-3.94-1.91l-3.83-2.12
			c-0.63-0.36-1.29-0.69-1.9-1.08l-1.84-1.18l-3.69-2.36l-3.54-2.58l-1.77-1.29c-0.58-0.44-1.13-0.92-1.7-1.38l-3.37-2.8
			c-1.1-0.96-2.14-1.98-3.22-2.97c-2.19-1.94-4.13-4.12-6.18-6.2c-0.98-1.08-1.93-2.19-2.89-3.28l-1.44-1.65l-1.36-1.71
			c-0.9-1.14-1.83-2.27-2.71-3.43l-2.56-3.54c-6.73-9.52-12.29-19.82-16.79-30.54c-2.25-5.36-4.24-10.83-5.94-16.39
			c-0.86-2.78-1.64-5.58-2.32-8.42l-0.48-2.15c-0.18-0.82-0.24-1.49-0.35-2.23c-0.2-1.44-0.37-2.88-0.54-4.32
			c-1.32-11.52-1.81-23.11-1.62-34.7c0.22-11.58,1.27-23.16,3.41-34.54c2.16-11.37,5.48-22.59,10.65-32.98l0.02-0.03
			c0.07-0.14,0.2-0.22,0.35-0.24c1.11-0.09,2.02,0.21,2.9,0.64c0.86,0.44,1.63,1.02,2.28,1.7c1.34,1.33,2.3,2.95,3.08,4.6
			c0.76,1.69,1.36,3.35,2.17,4.93c0.82,1.57,1.79,3.07,2.96,4.36c1.17,1.29,2.58,2.38,4.2,2.85c1.61,0.49,3.36,0.22,4.84-0.63
			c1.49-0.84,2.71-2.13,3.92-3.43c1.2-1.31,2.29-2.73,3.38-4.15c1.08-1.43,2.14-2.89,3.26-4.32c1.11-1.43,2.27-2.87,3.7-4.1
			l0.54-0.46l0.6-0.4c0.38-0.29,0.85-0.48,1.3-0.7c0.45-0.21,0.97-0.3,1.46-0.42l0.77-0.04l0.39-0.01l0.38,0.06
			c2.08,0.3,3.71,1.62,4.96,3c1.27,1.42,2.26,3,3.13,4.63c0.87,1.63,1.62,3.31,2.26,5.03c0.65,1.72,1.22,3.46,1.7,5.23
			c0.23,0.88,0.46,1.78,0.64,2.7l0.48,2.69c2.34,14.25,4.23,28.51,6.71,42.69c1.19,7.09,2.43,14.17,3.95,21.19
			c0.75,3.51,1.59,6.99,2.57,10.42c0.99,3.39,2.08,6.88,3.83,9.69l-0.11-0.13c4.01,4.53,7.39,9.39,10.55,14.44
			c3.14,5.05,6,10.26,8.47,15.66c2.49,5.38,4.68,10.91,6.41,16.58c0.42,1.42,0.94,2.81,1.28,4.25l1.12,4.3
			c0.41,1.42,0.66,2.89,0.96,4.35L518.11,720.64z"/>
	</g>
	<path class="st10" d="M674.2,370.81c0.95-40.54,19.56-45.79,19.56-45.79s-55.36-18.42-101.41,49.33c0,0,9.9,13.07,32.28,13.39
		c0,0,1.47,6.07-8.38,9.27c0,0,13.81,2.56,14.45,17.9c0,0-5.88-6.39-14.45-4.16c0,0-5,23.5,25.99,36.84
		C662.75,448.56,673.24,411.35,674.2,370.81z"/>
	<g>
		<path class="st5" d="M674.12,370.81l0.32-6.54c0.16-2.18,0.46-4.34,0.68-6.51c0.32-2.16,0.74-4.3,1.14-6.45l0.81-3.18l0.4-1.59
			l0.52-1.56c1.27-4.19,3.15-8.21,5.64-11.84c0.29-0.47,0.62-0.91,0.98-1.33l1.04-1.29c0.34-0.43,0.76-0.81,1.13-1.21
			c0.39-0.39,0.75-0.81,1.19-1.16c1.65-1.5,3.46-2.79,5.66-3.6l-0.02,0.94c-4.74-1.32-9.75-1.9-14.71-2.08
			c-4.97-0.16-9.96,0.17-14.88,0.91c-9.86,1.44-19.37,4.82-28.2,9.44c-4.43,2.3-8.6,5.07-12.66,7.98c-1.96,1.54-4,3-5.86,4.67
			l-2.85,2.45l-2.71,2.59c-7.2,6.95-13.59,14.74-19.17,23.05l-0.01-0.3c1.89,2.26,4.23,4.18,6.69,5.83c2.49,1.64,5.15,3,7.92,4.08
			c0.69,0.27,1.41,0.49,2.11,0.73c0.7,0.26,1.41,0.46,2.14,0.64c0.72,0.19,1.43,0.39,2.16,0.56l2.19,0.42l1.1,0.21l1.11,0.13
			l2.22,0.26c1.48,0.13,2.97,0.15,4.46,0.23l0.04,0c0.2,0.01,0.36,0.16,0.4,0.35c0.23,1.29,0,2.49-0.46,3.62
			c-0.47,1.12-1.23,2.1-2.09,2.9c-0.86,0.84-1.87,1.45-2.89,2.03c-0.53,0.25-1.05,0.51-1.59,0.74l-1.63,0.61l-0.07-1.07
			c2.13,0.48,4.08,1.3,5.92,2.39c1.83,1.09,3.48,2.5,4.84,4.17c1.34,1.66,2.46,3.55,3.11,5.59c0.42,1,0.56,2.06,0.81,3.1
			c0.19,1.05,0.24,2.11,0.36,3.17c0.04,0.37-0.22,0.7-0.59,0.75c-0.21,0.02-0.41-0.05-0.55-0.19l-0.06-0.06
			c-0.84-0.84-1.89-1.63-2.95-2.27c-1.08-0.64-2.24-1.15-3.43-1.51c-0.59-0.2-1.21-0.3-1.82-0.43c-0.62-0.06-1.23-0.17-1.86-0.14
			c-1.25-0.06-2.48,0.17-3.69,0.44l0.54-0.56c-0.31,1.86-0.31,3.89-0.16,5.84c0.13,0.98,0.19,1.97,0.43,2.93l0.3,1.45
			c0.12,0.48,0.28,0.95,0.41,1.42c1.13,3.78,3.04,7.3,5.44,10.45l1.93,2.26c0.3,0.39,0.68,0.72,1.04,1.06l1.08,1.02
			c1.38,1.43,3.06,2.53,4.63,3.76l0.6,0.45l0.64,0.39l1.28,0.78l2.56,1.56l5.4,2.63l-0.26-0.06c1.79,0.05,3.57-0.17,5.27-0.68
			c1.7-0.56,3.28-1.42,4.77-2.44c2.9-2.15,5.33-4.97,7.29-8.09c3.92-6.26,6.5-13.34,8.52-20.5c2.01-7.18,3.33-14.56,4.33-21.96
			C673.38,385.75,673.9,378.28,674.12,370.81z M674.27,370.81c-0.15,7.48-0.62,14.96-1.46,22.4c-0.84,7.44-2.01,14.86-3.86,22.14
			c-1.86,7.26-4.27,14.48-8.24,20.97c-1.97,3.24-4.45,6.24-7.53,8.59c-1.58,1.13-3.31,2.05-5.17,2.68c-1.88,0.57-3.84,0.82-5.8,0.76
			l-0.02,0c-0.09,0-0.17-0.02-0.25-0.06l-5.53-2.68l-2.63-1.59l-1.32-0.8l-0.66-0.4l-0.62-0.46c-1.62-1.26-3.35-2.4-4.8-3.88
			l-1.13-1.06c-0.38-0.35-0.77-0.69-1.09-1.1l-2.02-2.36c-2.53-3.28-4.53-6.99-5.69-10.98c-1.16-4-1.61-8.16-0.93-12.38
			c0.05-0.29,0.26-0.5,0.53-0.56l0.01,0c1.34-0.29,2.71-0.53,4.1-0.47c0.69-0.02,1.37,0.1,2.06,0.17c0.67,0.14,1.35,0.26,2.01,0.48
			c1.31,0.4,2.57,0.97,3.74,1.67c1.17,0.72,2.24,1.52,3.25,2.54l-1.2,0.5c-0.12-1-0.15-2.01-0.33-2.99
			c-0.23-0.97-0.36-1.98-0.74-2.9c-0.57-1.92-1.59-3.66-2.82-5.23c-1.23-1.56-2.76-2.9-4.47-3.95c-1.7-1.05-3.61-1.87-5.51-2.32
			l-0.01,0c-0.3-0.07-0.48-0.37-0.41-0.67c0.04-0.19,0.18-0.33,0.35-0.39l1.56-0.56c0.51-0.21,1-0.45,1.51-0.68
			c0.96-0.53,1.91-1.09,2.69-1.83c0.8-0.72,1.47-1.57,1.89-2.54c0.42-0.95,0.61-2.07,0.45-3.02l0.44,0.35
			c-1.51-0.1-3.02-0.14-4.52-0.29l-2.25-0.29l-1.12-0.15l-1.11-0.23l-2.22-0.46c-0.73-0.18-1.46-0.4-2.19-0.6
			c-0.73-0.19-1.45-0.41-2.16-0.68c-0.71-0.26-1.43-0.5-2.13-0.78c-2.8-1.14-5.48-2.56-7.99-4.25c-2.5-1.7-4.84-3.62-6.79-5.98
			c-0.07-0.08-0.07-0.2-0.01-0.29l0.01-0.01c5.68-8.28,12.02-16.14,19.2-23.18l2.71-2.62l2.82-2.51c1.84-1.71,3.87-3.21,5.82-4.8
			c4.04-3,8.2-5.86,12.64-8.27c8.83-4.86,18.49-8.31,28.5-9.83c5-0.76,10.07-1,15.12-0.8c5.05,0.24,10.08,0.85,14.97,2.36
			c0.26,0.08,0.4,0.35,0.32,0.61c-0.05,0.15-0.16,0.27-0.31,0.32l-0.04,0.01c-1.91,0.66-3.78,1.88-5.37,3.28
			c-0.43,0.32-0.79,0.72-1.18,1.1c-0.37,0.39-0.78,0.74-1.13,1.15l-1.04,1.24c-0.36,0.41-0.69,0.83-0.98,1.28
			c-2.51,3.5-4.47,7.44-5.82,11.57l-0.55,1.54l-0.43,1.57l-0.85,3.15c-0.41,2.14-0.85,4.27-1.18,6.42
			c-0.24,2.16-0.56,4.32-0.73,6.49L674.27,370.81z"/>
	</g>
	<path class="st10" d="M407.37,311.53c-3.96,30.7,11.88,35.98,11.88,35.98c5.2-15.38,27.42-24.54,27.42-24.54
		c-2.74-47.59-38.65-77.47-38.65-77.47C413.64,256.07,411.33,280.83,407.37,311.53z"/>
	<g>
		<path class="st5" d="M407.52,311.55l-0.45,5.03c-0.1,1.68-0.04,3.36-0.06,5.04c0.1,1.67,0.22,3.35,0.44,5
			c0.32,1.64,0.51,3.3,1.04,4.88c0.39,1.62,1.04,3.14,1.65,4.66l1.12,2.18c0.42,0.7,0.88,1.36,1.32,2.04c0.5,0.63,1,1.27,1.52,1.86
			c0.57,0.55,1.1,1.16,1.72,1.65c0.58,0.53,1.23,0.98,1.88,1.41c0.64,0.39,1.39,0.79,1.96,0.99l-1.62,0.8
			c1.1-3.15,2.76-6.04,4.8-8.6c2.05-2.55,4.45-4.74,6.96-6.75c2.54-1.97,5.25-3.68,8.02-5.26c2.79-1.56,5.62-2.97,8.6-4.15
			l-0.42,0.66c-0.25-7.34-1.41-14.67-3.49-21.73c-2.06-7.07-5.04-13.84-8.54-20.28c-1.78-3.21-3.67-6.35-5.68-9.41
			c-2.01-3.06-4.16-6.03-6.4-8.92c-4.48-5.75-9.5-11.22-14.88-15.94l2.42-1.97c2.71,5.49,3.12,11.29,3.36,16.91
			c0.19,5.65-0.18,11.24-0.75,16.8c-0.6,5.55-1.39,11.07-2.2,16.57C409.01,300.54,408.26,306.04,407.52,311.55z M407.22,311.51
			c0.67-5.52,1.28-11.04,1.68-16.58c0.4-5.54,0.69-11.09,0.85-16.62c0.17-5.53,0.26-11.05,0.01-16.52c-0.07-1.36-0.14-2.73-0.3-4.07
			c-0.11-1.36-0.33-2.68-0.55-4.01c-0.5-2.62-1.12-5.22-2.28-7.46l-0.02-0.04c-0.4-0.78-0.1-1.74,0.68-2.14
			c0.59-0.31,1.29-0.2,1.77,0.21c2.92,2.52,5.46,5.21,7.97,8.01c2.49,2.79,4.85,5.7,7.08,8.69c2.24,2.99,4.32,6.1,6.25,9.29
			c1.94,3.19,3.74,6.47,5.34,9.83c1.59,3.37,3.05,6.8,4.36,10.29c0.61,1.76,1.27,3.5,1.79,5.28c0.28,0.89,0.58,1.77,0.84,2.66
			l0.75,2.68c1.97,7.16,3.22,14.51,3.92,21.92c0.03,0.28-0.13,0.53-0.37,0.64l-0.05,0.02c-2.79,1.31-5.52,2.87-8.13,4.54
			c-2.61,1.69-5.13,3.5-7.45,5.52c-2.33,2-4.52,4.16-6.42,6.51c-1.84,2.4-3.42,4.96-4.46,7.75l-0.04,0.1
			c-0.24,0.63-0.94,0.95-1.56,0.71l-0.02-0.01c-1.01-0.4-1.72-0.86-2.5-1.38c-0.74-0.53-1.45-1.09-2.08-1.72
			c-0.68-0.59-1.23-1.3-1.81-1.97c-0.54-0.71-1.03-1.44-1.51-2.17c-0.42-0.77-0.86-1.53-1.25-2.31l-1.01-2.4
			c-0.52-1.65-1.06-3.29-1.33-4.99c-0.4-1.67-0.48-3.38-0.7-5.07c-0.09-0.84-0.06-1.7-0.1-2.55c-0.02-0.85-0.08-1.69-0.07-2.54
			c0.08-1.69,0.13-3.38,0.23-5.07L407.22,311.51z"/>
	</g>
	<g>
		<path class="st11" d="M482.46,291.38c0,0,3.11-25.92,49.77-30.07c46.66-4.15,82.26,26.62,83.99,52.88
			c0.95,14.45-19.28,19.58-37.68,21.28c-18.48,1.7-37.09-1.26-54.3-8.21C504.71,319.37,481.24,306.64,482.46,291.38z"/>
		<path class="st12" d="M536.51,261.03c-35.37,18.29-40.43,36.23-40.43,36.23h18.67c7.27-16.28,29.44-28.21,43.97-34.54
			C551.73,261.32,544.29,260.68,536.51,261.03z"/>
		<g>
			<path class="st5" d="M482.31,291.37c0.28-1.75,0.86-3.39,1.58-4.98l0.54-1.19l0.64-1.14l0.64-1.14l0.73-1.08
				c0.92-1.49,2.09-2.78,3.2-4.13l1.86-1.84l0.93-0.92l1.01-0.83c5.35-4.51,11.75-7.65,18.36-9.9c1.67-0.51,3.33-1.09,5.02-1.55
				l5.12-1.14c1.7-0.43,3.44-0.62,5.17-0.87l5.2-0.67c6.98-0.65,14.04-0.45,20.98,0.54c3.46,0.57,6.9,1.24,10.27,2.21
				c1.7,0.42,3.35,1.01,5.02,1.53l2.46,0.9c0.82,0.29,1.64,0.6,2.44,0.95c6.47,2.64,12.59,6.06,18.25,10.1
				c5.63,4.08,10.83,8.81,15.13,14.3c4.27,5.48,7.85,11.69,9.47,18.61c0.17,0.87,0.36,1.73,0.52,2.61c0.1,0.88,0.24,1.75,0.31,2.66
				c0.13,1.83-0.08,3.72-0.69,5.49c-0.6,1.77-1.59,3.41-2.79,4.81c-1.21,1.4-2.63,2.58-4.13,3.59c-3.01,2.02-6.31,3.44-9.65,4.57
				c-3.35,1.13-6.79,1.92-10.23,2.57c-6.89,1.26-13.85,1.98-20.88,2.08c-7.01,0.08-14.03-0.55-20.93-1.78
				c-6.89-1.29-13.68-3.12-20.22-5.62c-3.28-1.25-6.47-2.62-9.62-4.1c-3.16-1.46-6.26-3.05-9.31-4.74
				c-6.07-3.4-12.01-7.16-17.14-11.9c-2.54-2.38-4.93-4.98-6.69-8C483.1,298.37,481.99,294.88,482.31,291.37z M482.6,291.4
				c-0.26,3.43,0.84,6.84,2.64,9.74c0.89,1.46,1.98,2.8,3.13,4.07c1.14,1.28,2.41,2.44,3.73,3.54c5.29,4.39,11.32,7.78,17.5,10.77
				c6.2,2.95,12.59,5.57,19.02,7.88c6.45,2.25,13.06,4.04,19.79,5.18c13.44,2.4,27.25,2.37,40.75,0.07
				c3.36-0.58,6.69-1.33,9.92-2.32c3.23-0.99,6.37-2.26,9.16-4.03c2.77-1.77,5.16-4.13,6.31-7.11c0.57-1.48,0.82-3.09,0.77-4.71
				c-0.03-0.82-0.13-1.67-0.19-2.51c-0.11-0.83-0.26-1.66-0.39-2.5c-1.35-6.64-4.53-12.89-8.68-18.34
				c-4.13-5.49-9.27-10.18-14.88-14.13c-2.84-1.94-5.78-3.73-8.84-5.28c-3.08-1.51-6.21-2.93-9.45-4.06
				c-6.43-2.36-13.16-3.83-19.92-4.67c-6.78-0.8-13.62-0.9-20.42-0.39c-6.78,0.77-13.63,1.46-20.19,3.41
				c-6.56,1.84-12.95,4.57-18.42,8.72l-1.04,0.76l-0.96,0.86l-1.89,1.75c-1.12,1.29-2.32,2.53-3.27,3.97
				c-0.25,0.35-0.51,0.69-0.75,1.05l-0.64,1.12l-0.64,1.12l-0.54,1.17C483.48,288.08,482.89,289.73,482.6,291.4z"/>
		</g>
		<path class="st11" d="M460.61,307.72c0,0-8.75-31.8,11.93-29.82c20.67,1.99,41.05,4.37,50.94,24.65s30.68,32.51,30.68,32.51
			s-33.91-0.71-54.58-15.02C478.9,305.74,479.29,310.51,460.61,307.72z"/>
		<g>
			<path class="st5" d="M460.51,307.84c-0.08-0.12-0.05-0.11-0.07-0.14l-0.02-0.07l-0.04-0.13l-0.08-0.27l-0.16-0.54l-0.31-1.08
				c-0.2-0.72-0.37-1.46-0.54-2.19c-0.33-1.47-0.6-2.95-0.82-4.45c-0.44-2.99-0.62-6.04-0.36-9.11c0.29-3.05,1.05-6.23,3.04-8.91
				c1-1.32,2.34-2.42,3.85-3.15c1.51-0.73,3.15-1.09,4.77-1.21c1.62-0.11,3.22,0.08,4.67,0.2l4.48,0.43
				c2.99,0.29,5.97,0.71,8.95,1.19c5.94,1.04,11.87,2.66,17.36,5.32c5.49,2.65,10.39,6.52,14.1,11.3c1.88,2.38,3.42,5,4.76,7.69
				c1.32,2.65,2.9,5.18,4.6,7.6c3.47,4.81,7.54,9.16,11.97,13.08c4.44,3.87,9.18,7.54,14.17,10.51l0.01,0.01
				c0.63,0.38,0.84,1.19,0.47,1.83c-0.26,0.43-0.72,0.66-1.18,0.65c-8.39-0.25-16.64-1.26-24.84-2.92
				c-8.16-1.72-16.24-4.24-23.74-8.14c-1.87-0.97-3.7-2.05-5.46-3.23c-1.79-1.2-3.39-2.36-5.09-3.54
				c-3.38-2.31-6.81-4.53-10.43-6.26c-1.82-0.84-3.69-1.51-5.64-1.94c-1.95-0.44-3.99-0.61-6.04-0.81
				C468.76,309.16,464.69,308.75,460.51,307.84z M460.71,307.61l3.02,0.22l3.07,0.2c2.06,0.09,4.11,0.14,6.18,0.17
				c2.07,0.07,4.16,0.12,6.27,0.46c2.11,0.34,4.18,0.94,6.16,1.71c3.94,1.6,7.54,3.77,11.07,5.96c1.73,1.11,3.51,2.32,5.18,3.37
				c1.69,1.08,3.47,2.04,5.27,2.94c3.61,1.8,7.39,3.3,11.25,4.54c3.85,1.29,7.79,2.32,11.78,3.21c7.95,1.78,16.13,2.92,24.23,3.33
				l-0.7,2.48c-2.62-1.66-5.02-3.45-7.39-5.35c-2.36-1.89-4.62-3.91-6.77-6.02c-4.3-4.24-8.25-8.84-11.55-13.89
				c-1.68-2.5-3.18-5.12-4.52-7.82l-1.01-1.98c-0.35-0.65-0.73-1.28-1.1-1.93c-0.8-1.24-1.63-2.46-2.56-3.61
				c-1.85-2.3-4-4.34-6.39-6.05c-2.4-1.69-4.98-3.11-7.7-4.22c-5.42-2.27-11.23-3.43-17.06-4.33c-2.92-0.47-5.86-0.8-8.82-1.17
				l-4.44-0.49c-1.52-0.16-2.91-0.33-4.27-0.27c-1.37,0.06-2.7,0.32-3.9,0.85c-1.19,0.54-2.26,1.34-3.1,2.38
				c-1.72,2.07-2.58,4.89-3.01,7.74C459.07,295.79,459.7,301.92,460.71,307.61z"/>
		</g>
	</g>
	<path class="st3" d="M509.7,327.4c0,0-30.88-18.87-37.12-39.3c0,0-2.61,9.24,1.04,19.65c0,0-35.6-6.31-40.96,7.29
		c0,0,17.62-2.9,31.45,9.81c0,0-16.28,22.53,19.4,33.01c0,0-0.95-0.67-2.07-2.5c-5.26-8.63-0.39-19.93,9.34-22.66L509.7,327.4z"/>
	<g>
		<path class="st5" d="M509.62,327.52c-2.03-1.09-3.99-2.3-5.93-3.54c-1.94-1.24-3.86-2.52-5.71-3.89
			c-3.73-2.71-7.33-5.62-10.71-8.78c-3.39-3.16-6.58-6.56-9.36-10.34c-1.4-1.87-2.7-3.84-3.8-5.94c-1.12-2.08-2.05-4.28-2.73-6.58
			l2.41-0.03c-0.38,1.44-0.69,3.08-0.86,4.67c-0.18,1.6-0.26,3.22-0.22,4.84c0.04,1.62,0.16,3.24,0.44,4.84
			c0.23,1.61,0.65,3.18,1.1,4.75l0.01,0.05c0.1,0.35-0.1,0.71-0.45,0.81c-0.1,0.03-0.21,0.03-0.31,0.01
			c-3.56-0.7-7.2-1.17-10.84-1.43c-3.64-0.28-7.3-0.31-10.93-0.06c-3.62,0.26-7.24,0.85-10.59,2.08c-1.66,0.62-3.27,1.4-4.6,2.48
			c-1.33,1.06-2.38,2.41-2.92,3.94l-1.13-1.4c2.97-0.48,5.84-0.5,8.75-0.3c2.9,0.21,5.8,0.71,8.6,1.54
			c1.42,0.37,2.78,0.93,4.15,1.43c1.33,0.62,2.7,1.17,3.96,1.93c2.61,1.36,4.95,3.19,7.2,5.09c0.58,0.49,0.69,1.33,0.28,1.95
			l-0.07,0.11c-0.44,0.65-0.9,1.5-1.28,2.29c-0.39,0.81-0.75,1.64-1.03,2.49c-0.6,1.69-0.94,3.45-1.03,5.2
			c-0.07,1.75,0.1,3.49,0.62,5.15c0.51,1.66,1.34,3.22,2.41,4.63c2.14,2.83,5.1,5.13,8.36,6.91c3.26,1.82,6.79,3.21,10.39,4.41
			l-0.68,2.02c-1.13-0.53-1.91-1.16-2.72-1.89c-0.79-0.71-1.45-1.53-2.07-2.37c-1.21-1.71-2.04-3.61-2.63-5.56
			c-0.61-1.95-0.82-3.97-1-5.96c-0.03-1-0.04-2-0.04-2.99l0.21-2.97c0.01-0.08,0.08-0.14,0.16-0.14c0.08,0.01,0.14,0.07,0.14,0.14
			l0,0.01l0.11,2.95c0.09,0.98,0.19,1.95,0.3,2.92c0.33,1.92,0.72,3.83,1.44,5.61c0.67,1.79,1.55,3.49,2.72,4.94
			c0.6,0.71,1.22,1.4,1.94,1.96c0.68,0.56,1.52,1.1,2.2,1.36c0.55,0.22,0.82,0.84,0.6,1.38c-0.2,0.51-0.75,0.78-1.27,0.64l-0.01,0
			c-3.77-1.01-7.5-2.3-11.05-4.09c-0.89-0.45-1.74-0.97-2.62-1.46c-0.83-0.57-1.7-1.07-2.49-1.71c-1.64-1.19-3.12-2.64-4.41-4.27
			c-1.28-1.63-2.33-3.5-2.99-5.52c-0.66-2.01-0.94-4.15-0.83-6.25c0.11-2.1,0.53-4.15,1.22-6.09c0.69-1.97,1.55-3.75,2.8-5.55
			l0.21,2.05c-2.04-1.78-4.15-3.52-6.54-4.83c-1.15-0.74-2.41-1.26-3.63-1.87c-1.27-0.49-2.52-1.05-3.84-1.42
			c-2.61-0.81-5.3-1.43-8.03-1.72c-2.72-0.31-5.54-0.35-8.19-0.1l-0.1,0.01c-0.56,0.05-1.06-0.36-1.11-0.92
			c-0.02-0.17,0.01-0.34,0.07-0.49c0.79-1.9,2.2-3.46,3.8-4.59c1.6-1.14,3.38-1.89,5.18-2.46c3.61-1.12,7.32-1.5,11.01-1.7
			c3.69-0.17,7.37-0.08,11.05,0.13c3.68,0.23,7.33,0.56,11.01,1.05l-0.74,0.88c-0.57-1.59-1.11-3.21-1.46-4.88
			c-0.39-1.66-0.63-3.35-0.77-5.05c-0.15-1.7-0.17-3.41-0.08-5.12c0.1-1.73,0.26-3.39,0.69-5.17c0.16-0.67,0.83-1.07,1.5-0.91
			c0.43,0.1,0.75,0.41,0.88,0.8l0.03,0.09c1.41,4.16,3.64,8.06,6.26,11.69c1.3,1.82,2.72,3.58,4.21,5.27
			c1.47,1.71,3.01,3.37,4.62,4.97c3.19,3.22,6.59,6.26,10.08,9.19c3.5,2.93,7.1,5.75,10.82,8.42c0.07,0.05,0.08,0.14,0.04,0.21
			C509.77,327.54,509.69,327.56,509.62,327.52z"/>
	</g>
	<g>
		<path class="st5" d="M477.64,351.83c-0.15-2.82,0.62-5.66,1.88-8.24c1.28-2.57,3.08-4.95,5.33-6.79c0.54-0.49,1.17-0.86,1.75-1.3
			l0.9-0.61l0.96-0.51c0.65-0.32,1.28-0.68,1.94-0.96c0.67-0.25,1.35-0.49,2.03-0.71c0.34-0.12,0.68-0.23,1.02-0.33l1.05-0.21
			l2.09-0.38c1.41-0.13,2.82-0.15,4.21-0.1c-1.29,0.6-2.59,1-3.84,1.52l-1.84,0.82l-0.92,0.39l-0.88,0.47
			c-0.58,0.31-1.16,0.61-1.75,0.9l-1.65,1.04l-0.83,0.51l-0.77,0.59c-0.5,0.4-1.06,0.73-1.53,1.18c-2,1.63-3.71,3.57-5.23,5.69
			C480,346.91,478.72,349.25,477.64,351.83z"/>
	</g>
	<g>
		<path class="st5" d="M463.14,324.1c0.26-0.27,0.39-0.33,0.58-0.47c0.18-0.11,0.36-0.21,0.54-0.29c0.36-0.17,0.72-0.27,1.08-0.36
			c0.72-0.16,1.43-0.18,2.11-0.12c0.68,0.05,1.32,0.22,1.95,0.39c0.62,0.2,1.21,0.44,1.78,0.71c-0.63-0.07-1.25-0.11-1.87-0.1
			c-0.61,0.03-1.22,0.08-1.78,0.23c-0.56,0.14-1.1,0.34-1.54,0.62c-0.22,0.14-0.42,0.29-0.59,0.46c-0.09,0.08-0.16,0.17-0.22,0.25
			c-0.05,0.07-0.15,0.21-0.09,0.18c-0.42,0.54-1.19,0.64-1.73,0.22C462.82,325.41,462.72,324.64,463.14,324.1z"/>
	</g>
	<g>
		<path class="st5" d="M479.38,317.71c-0.94-0.42-1.73-1.07-2.43-1.79c-0.71-0.72-1.32-1.53-1.81-2.41
			c-0.49-0.88-0.91-1.8-1.16-2.78c-0.28-0.96-0.41-1.98-0.35-2.99c0.55,0.87,0.97,1.72,1.44,2.56l1.38,2.47
			C477.36,314.41,478.35,315.98,479.38,317.71z"/>
	</g>
	<path class="st5" d="M425.27,324.85c0,0,11.52-4.61,18.29,3.07c0,0-1.96-4.1-1.38-8.45c0,0,9.93,1.62,8.45,14.91
		c-0.61,5.53,5.22,5.17-0.61,23.48c0,0,0.04-24.55-17.34-26.78c0,0,0.8-3.44,0-4.59C431.52,324.85,425.27,324.85,425.27,324.85z"/>
	<path class="st5" d="M503.04,355.03c0,0,15.26-21.16,37.12-16.65c0,0-7.58,1.19-8.13,3.37c0,0,16.6,3.84,16.41,23.94
		c0,0-1.48-4.24-5.9-7.84c0,0,3.69,10.79-1.29,18.72c0,0,1.29-21.21-10.88-26.19C518.19,345.41,503.04,355.03,503.04,355.03z"/>
	<path class="st3" d="M618.56,316c0,0-35.89,8.68-50.78,25.75c0,0,36.06,2.32,48.47-10.07C628.66,319.29,618.56,316,618.56,316z"/>
	<g>
		<path class="st5" d="M623.14,313.68l-14.5,5.96c-4.8,2.01-9.59,4.01-14.28,6.22c-4.7,2.16-9.35,4.44-13.82,7.02
			c-4.46,2.6-8.81,5.38-12.76,8.87c3.03-4.34,7.18-7.81,11.51-10.84c1.1-0.74,2.18-1.52,3.32-2.19l3.42-2.01
			c1.15-0.66,2.34-1.22,3.51-1.83c1.17-0.61,2.36-1.19,3.56-1.73c2.4-1.1,4.83-2.11,7.28-3.09c2.48-0.9,4.93-1.84,7.45-2.61
			C612.84,315.87,617.93,314.51,623.14,313.68z"/>
	</g>
	<g>
		<path class="st7" d="M442.8,395.65c0,0,0.26-15.29,8.41-28.58c8.15-13.29,7.5-5.9,7.08-2.36c-0.43,3.54,2.79,8.25,7.07,2.68
			c4.29-5.57,5.98-5.57,5.83-3.75c-0.15,1.82-1.43,9,1.89,9.43c3.32,0.43,9.13-10.05,14.94-8.07c5.81,1.98,9.49,0.28,11.19,2.69
			c1.7,2.41-3.54,3.57-7.65,9.86c-4.11,6.29-10.03,16.21-9.26,28.39c0.76,12.18,0,33.98,0,33.98l-45.64-10.83L442.8,395.65z"/>
		<g>
			<path class="st5" d="M442.72,395.64c0.13-3.82,0.71-7.63,1.52-11.37c0.86-3.73,1.93-7.43,3.42-10.98
				c1.47-3.55,3.35-6.94,5.5-10.14c0.54-0.8,1.1-1.59,1.73-2.35c0.32-0.38,0.65-0.75,1.03-1.1c0.4-0.33,0.77-0.73,1.58-0.83
				c0.42-0.05,0.92,0.25,1.1,0.56c0.22,0.31,0.28,0.59,0.35,0.87c0.11,0.54,0.14,1.05,0.14,1.55c0,1-0.1,1.97-0.2,2.93
				c-0.09,0.84,0.04,1.72,0.36,2.51c0.31,0.78,0.84,1.48,1.48,1.8c0.63,0.34,1.39,0.18,2.1-0.22c0.72-0.41,1.33-1.09,1.91-1.78
				c1.2-1.49,2.4-3.03,3.98-4.32c0.43-0.3,0.83-0.63,1.51-0.81c0.28-0.11,0.95-0.04,1.26,0.39c0.3,0.4,0.31,0.77,0.31,1.07
				c-0.02,0.59-0.1,1.01-0.15,1.5l-0.16,1.41c-0.09,0.93-0.14,1.87-0.1,2.78c0.04,0.91,0.17,1.83,0.55,2.54
				c0.17,0.38,0.46,0.6,0.75,0.79c0.17,0.03,0.35,0.12,0.52,0.13c0.16,0.01,0.35-0.01,0.54-0.07c0.77-0.23,1.54-0.82,2.26-1.4
				c1.45-1.2,2.82-2.56,4.32-3.78c1.5-1.19,3.14-2.39,5.14-2.77c0.49-0.11,1.01-0.11,1.51-0.08c0.5,0.05,1.02,0.21,1.45,0.35
				c0.89,0.31,1.81,0.51,2.74,0.69c1.86,0.36,3.76,0.31,5.7,0.61c0.96,0.14,1.99,0.62,2.55,1.5c0.31,0.42,0.42,1.06,0.2,1.56
				c-0.2,0.52-0.56,0.87-0.9,1.23c-1.42,1.34-2.93,2.47-4.23,3.86c-1.33,1.36-2.43,2.88-3.43,4.52c-1.01,1.62-1.98,3.26-2.87,4.94
				c-0.89,1.68-1.71,3.4-2.41,5.16c-0.72,1.76-1.33,3.55-1.79,5.38c-0.98,3.65-1.36,7.45-1.15,11.2c0.25,3.82,0.4,7.66,0.44,11.49
				c0.09,7.66-0.01,15.31-0.22,22.97c-0.01,0.43-0.37,0.77-0.8,0.76c-0.05,0-0.11-0.01-0.16-0.02l-0.01,0l-22.81-5.45
				c-3.8-0.9-7.6-1.85-11.39-2.79c-3.79-0.94-7.59-1.88-11.37-2.86l-0.02,0c-0.26-0.07-0.42-0.32-0.36-0.58l3.36-16.66
				C440.62,406.78,441.65,401.21,442.72,395.64z M442.87,395.66c-0.98,5.58-2,11.15-2.94,16.74l-2.79,16.78l-0.38-0.59
				c3.82,0.82,7.63,1.69,11.45,2.55c3.81,0.86,7.63,1.72,11.43,2.63l22.83,5.39l-0.97,0.74c0.28-7.63,0.45-15.27,0.43-22.91
				c-0.01-3.82-0.05-7.62-0.23-11.44c-0.14-3.89,0.33-7.78,1.41-11.5c1.04-3.73,2.62-7.27,4.5-10.63c0.94-1.68,1.94-3.31,2.99-4.92
				c1.02-1.61,2.17-3.2,3.53-4.57c1.33-1.4,2.89-2.57,4.27-3.84c0.32-0.33,0.65-0.67,0.8-1.06c0.16-0.38,0.1-0.78-0.15-1.15
				c-0.48-0.75-1.35-1.15-2.26-1.28c-1.84-0.26-3.8-0.21-5.71-0.55c-0.95-0.17-1.9-0.38-2.82-0.68c-0.48-0.15-0.88-0.26-1.33-0.31
				c-0.45-0.02-0.9-0.02-1.34,0.08c-1.79,0.38-3.34,1.55-4.77,2.76c-1.44,1.23-2.75,2.61-4.22,3.89c-0.75,0.62-1.5,1.28-2.55,1.65
				c-0.26,0.09-0.56,0.14-0.87,0.13c-0.31-0.01-0.58-0.12-0.87-0.2c-0.53-0.28-1.01-0.7-1.25-1.19c-0.54-0.97-0.67-2-0.75-2.99
				c-0.07-0.99-0.04-1.97,0.03-2.95l0.13-1.45c0.04-0.46,0.12-0.99,0.13-1.36c0.01-0.18-0.05-0.32-0.04-0.29
				c0.02,0.05,0.14,0.01-0.04,0.05c-0.26,0.06-0.65,0.32-0.98,0.57c-1.38,1.14-2.57,2.64-3.74,4.14c-0.64,0.77-1.31,1.55-2.26,2.11
				c-0.48,0.27-1,0.5-1.6,0.57c-0.29,0.05-0.6,0-0.9-0.01c-0.29-0.09-0.6-0.15-0.86-0.3c-1.07-0.56-1.71-1.54-2.09-2.52
				c-0.38-0.99-0.52-2.06-0.39-3.12c0.12-0.94,0.22-1.87,0.24-2.79c0.01-0.45-0.01-0.91-0.09-1.3c-0.04-0.18-0.1-0.38-0.16-0.46
				c-0.07-0.09-0.04-0.06-0.1-0.07c-0.16-0.01-0.58,0.24-0.89,0.53c-0.33,0.28-0.65,0.61-0.96,0.96c-0.62,0.69-1.19,1.44-1.74,2.21
				c-2.22,3.08-4.18,6.35-5.75,9.81C445.06,380.46,443.29,388.03,442.87,395.66z"/>
		</g>
		<g>
			<path class="st13" d="M492.99,451.44c0,0-15.36-1.88-15.36-29.73c0-30.4,29.03-41.79,42.2-13.93
				C533,435.64,513,456.4,492.99,451.44z"/>
			<path class="st14" d="M492.99,451.44c0,0-15.36-1.88-15.36-29.73c0-30.4,29.03-41.79,42.2-13.93
				C533,435.64,513,456.4,492.99,451.44z"/>
			<ellipse class="st5" cx="503.96" cy="430.71" rx="14.75" ry="16.53"/>
			<path class="st13" d="M501.8,424.38c0,2.6-1.88,4.7-4.2,4.7c-2.32,0-4.2-2.11-4.2-4.7c0-2.6,1.88-4.7,4.2-4.7
				C499.92,419.68,501.8,421.78,501.8,424.38z"/>
		</g>
		<g>
			<path class="st13" d="M438.32,426.07c4.75-4.57,10.75-34.27-2.88-40.13c-11.52-4.95-34.7,23.79-18.26,43.26
				C419.68,431.75,428.81,436.07,438.32,426.07z"/>
			<path class="st14" d="M438.32,426.07c4.75-4.57,10.75-34.27-2.88-40.13c-11.52-4.95-34.7,23.79-18.26,43.26
				C419.68,431.75,428.81,436.07,438.32,426.07z"/>
			<path class="st5" d="M438.32,426.07c1.35-1.3,2.8-4.62,3.87-8.85c-1.33-5.01-4.79-8.77-9.27-9.36
				c-6.46-0.86-12.58,5.17-13.69,13.47c-0.49,3.7,0.1,7.22,1.48,10.07C424.85,433.04,431.48,433.27,438.32,426.07z"/>
			<path class="st13" d="M430.23,415.11c-0.29,2.19-1.68,3.81-3.11,3.62c-1.43-0.19-2.35-2.12-2.06-4.3
				c0.29-2.19,1.68-3.81,3.11-3.62C429.6,410.99,430.53,412.92,430.23,415.11z"/>
		</g>
		<path class="st15" d="M404.84,428.03c0,0,15.05-3.41,21.27,7.42"/>
		<g>
			<path class="st5" d="M404.84,428.03c1.91-0.7,3.95-1,5.99-1.07c2.05-0.07,4.12,0.17,6.13,0.71c2,0.58,3.91,1.54,5.52,2.86
				c1.65,1.3,2.81,3.09,3.62,4.93c-1.35-1.52-2.67-2.97-4.32-3.99c-1.63-1.03-3.37-1.85-5.24-2.36c-1.86-0.52-3.79-0.81-5.75-0.98
				C408.85,427.97,406.86,427.94,404.84,428.03z"/>
		</g>
		<path class="st9" d="M423.85,455.31c0,0,1.63,3.72,2.76,18.64c1.13,14.93,13.48,35.49,38.71,28.73
			c25.22-6.76,33.67-38.3,33.67-38.3L423.85,455.31z"/>
		<g>
			<path class="st5" d="M423.91,455.35c0.05-0.05,0.03,0,0.06,0.04l0.05,0.12l0.09,0.24l0.16,0.48l0.29,0.96
				c0.18,0.64,0.33,1.3,0.47,1.95c0.29,1.31,0.52,2.62,0.75,3.94c0.45,2.63,0.76,5.29,1.04,7.94c0.14,1.32,0.25,2.67,0.41,3.96
				c0.17,1.3,0.41,2.59,0.71,3.87c0.59,2.55,1.47,5.04,2.59,7.41c1.11,2.37,2.49,4.61,4.12,6.65c1.61,2.04,3.45,3.93,5.55,5.46
				c2.1,1.54,4.4,2.79,6.85,3.68c2.45,0.9,5.05,1.37,7.67,1.52c5.26,0.3,10.58-0.82,15.45-2.83c2.45-1.01,4.74-2.38,6.89-3.91
				c2.15-1.54,4.16-3.28,5.98-5.2c3.67-3.82,6.69-8.22,9.2-12.86c2.51-4.63,4.6-9.56,6.06-14.58l0.6,0.88
				c-6.22-0.73-12.41-1.39-18.6-2.19c-6.2-0.79-12.38-1.55-18.6-2.39L423.91,455.35z M423.79,455.26l37.35,3.92
				c6.3,0.67,12.65,1.42,18.97,2.15c6.33,0.71,12.66,1.56,18.97,2.34l0.02,0c0.38,0.05,0.65,0.39,0.6,0.77
				c0,0.04-0.01,0.08-0.02,0.11c-1.56,5.2-3.78,10.09-6.44,14.76c-2.69,4.64-5.91,9-9.72,12.77c-3.82,3.75-8.21,6.97-13.16,9.07
				c-2.46,1.07-5.03,1.86-7.66,2.41c-2.62,0.56-5.31,0.86-8.01,0.81c-5.39-0.07-10.85-1.75-15.24-5
				c-4.44-3.19-7.81-7.69-10.03-12.62c-1.13-2.46-2-5.04-2.57-7.68c-0.62-2.64-0.73-5.37-0.9-8c-0.19-2.65-0.45-5.3-0.74-7.94
				c-0.16-1.32-0.33-2.64-0.55-3.94c-0.11-0.65-0.23-1.31-0.36-1.96l-0.22-0.97l-0.13-0.48l-0.07-0.24l-0.04-0.12
				C423.82,455.42,423.77,455.39,423.79,455.26z"/>
		</g>
		<path class="st9" d="M442.44,425.84c0,0-26.47,0.11-23.28,19.85c3.19,19.74,30.07,17.61,35.17,9.57
			C461.92,443.29,442.44,425.84,442.44,425.84z"/>
		<g>
			<path class="st5" d="M442.44,425.84c-4.72,0.34-9.45,1.27-13.69,3.29c-2.1,1.01-4.11,2.27-5.67,3.96
				c-1.6,1.65-2.69,3.74-3.2,5.95c-0.52,2.22-0.4,4.56-0.02,6.82c0.4,2.27,1.2,4.46,2.42,6.37c1.22,1.91,2.85,3.57,4.77,4.8
				c1.92,1.23,4.07,2.1,6.31,2.63c4.48,1.05,9.28,0.92,13.69-0.42c2.18-0.7,4.32-1.7,5.88-3.27c0.76-0.77,1.33-1.74,1.75-2.79
				c0.25-0.5,0.36-1.06,0.54-1.59c0.1-0.55,0.23-1.1,0.25-1.67c0.22-2.26-0.27-4.57-1.03-6.76c-0.79-2.19-1.87-4.29-3.12-6.28
				C448.86,432.86,445.79,429.2,442.44,425.84z M442.44,425.84c3.58,3.12,6.78,6.7,9.49,10.64c1.34,1.98,2.5,4.1,3.39,6.35
				c0.85,2.25,1.45,4.68,1.29,7.17c-0.01,0.62-0.14,1.24-0.23,1.85c-0.17,0.6-0.29,1.22-0.55,1.79c-0.21,0.59-0.51,1.14-0.82,1.69
				c-0.31,0.54-0.72,1.08-1.16,1.53c-1.79,1.84-4.09,2.9-6.39,3.67c-4.66,1.46-9.67,1.65-14.45,0.57c-2.37-0.59-4.68-1.53-6.74-2.89
				c-2.07-1.35-3.83-3.17-5.14-5.27c-1.31-2.1-2.14-4.47-2.54-6.87c-0.4-2.4-0.47-4.92,0.18-7.31c0.62-2.39,1.88-4.63,3.64-6.34
				c1.72-1.75,3.85-3.01,6.05-3.97c2.22-0.93,4.54-1.56,6.89-1.99C437.69,426.05,440.07,425.81,442.44,425.84z"/>
		</g>
		<path class="st9" d="M494.67,451.44c0,0-19.07-24.7-52.23-25.61l1.05,22.48c0,0-0.36,21.46,20.74,22.54
			C485.34,471.95,494.67,451.44,494.67,451.44z"/>
		<g>
			<path class="st5" d="M494.67,451.44c-3.28-3.76-7-7.11-10.98-10.09c-3.98-2.98-8.22-5.6-12.69-7.75
				c-1.11-0.55-2.22-1.1-3.38-1.54c-1.15-0.46-2.29-0.95-3.44-1.39c-2.36-0.74-4.68-1.61-7.11-2.11c-4.78-1.32-9.73-1.76-14.65-2.04
				l0.7-0.72l0.6,11.86c0.2,3.94,0.41,7.94,0.54,11.82c0.26,3.83,1.26,7.67,3.14,11.01c1.84,3.36,4.73,6.1,8.2,7.71
				c3.47,1.59,7.39,2.27,11.27,2.09c3.87-0.1,7.74-0.96,11.27-2.61c3.53-1.65,6.74-3.99,9.51-6.78
				C490.41,458.11,492.82,454.94,494.67,451.44z M494.67,451.44c-1.67,3.59-3.98,6.87-6.68,9.79c-2.7,2.91-5.88,5.45-9.49,7.2
				c-3.6,1.78-7.58,2.75-11.59,2.94c-4,0.25-8.13-0.31-11.85-2.01c-3.72-1.69-6.87-4.64-8.85-8.2c-2.02-3.55-3.08-7.55-3.39-11.59
				c-0.4-7.96-0.7-15.8-1.06-23.71l0-0.03c-0.02-0.37,0.27-0.68,0.63-0.69l0.07,0c5.02,0.32,10.07,0.81,14.92,2.19
				c2.46,0.54,4.81,1.49,7.19,2.29c1.17,0.47,2.31,0.99,3.47,1.48c1.17,0.47,2.28,1.05,3.39,1.63c4.47,2.28,8.73,4.99,12.61,8.15
				C487.94,444.04,491.59,447.52,494.67,451.44z"/>
		</g>
		<path class="st3" d="M482.41,455.21c-1.58,16.2,12.31,15.76,18.36,31.17l30.22-47.63C530.99,438.75,484.83,430.4,482.41,455.21z"
			/>
		<path class="st4" d="M484.56,448.37c-0.82,8.91,4.64,25.44,32.06,28.25c19.72,2.02,28.02,2.18,28.02,2.18s-28.76,13.9-43.87,7.58
			c0,0-2.56-6.72-8.59-12.08C487.04,469.73,477.37,462.18,484.56,448.37z"/>
		<g>
			<path class="st5" d="M530.99,438.75c-7.87-0.63-15.75-0.75-23.46,0.1c-3.83,0.51-7.66,1.15-11.2,2.49
				c-3.54,1.26-6.87,3.15-9.14,5.92c-1.2,1.33-2,2.95-2.6,4.63l-0.39,1.29c-0.1,0.44-0.15,0.89-0.23,1.34
				c-0.2,0.88-0.16,1.83-0.24,2.75l-0.04,0.7c0,0.23,0.03,0.46,0.04,0.68l0.09,1.37c0,0.47,0.16,0.89,0.23,1.33
				c0.11,0.43,0.14,0.9,0.31,1.31l0.46,1.26c0.13,0.43,0.41,0.8,0.6,1.21c0.37,0.83,0.97,1.55,1.48,2.32
				c2.33,2.93,5.42,5.49,8.03,8.55c2.62,3.04,4.74,6.56,5.84,10.37c-1.73-3.57-4.09-6.7-6.91-9.36c-2.76-2.72-6-4.96-8.77-8.07
				c-1.34-1.59-2.53-3.4-3.22-5.45c-0.22-0.49-0.28-1.03-0.43-1.54c-0.1-0.52-0.3-1.04-0.32-1.56l-0.16-1.58
				c-0.02-0.26-0.06-0.53-0.07-0.79l0.02-0.78c0.04-1.04,0.01-2.08,0.22-3.13c0.09-0.52,0.15-1.05,0.26-1.57l0.44-1.55
				c0.68-2.02,1.65-4.02,3.08-5.64c1.4-1.62,3.04-3.05,4.86-4.1c1.8-1.08,3.69-1.97,5.65-2.58c3.9-1.29,7.92-1.89,11.92-2.14
				c4-0.24,8-0.12,11.95,0.26C523.23,437.19,527.16,437.78,530.99,438.75z"/>
		</g>
		<path class="st5" d="M443.5,448.32c0,0,2.64-4.56,8.87-3.95c6.23,0.61,19.75,1.22,8.81-11.55c-10.94-12.76-28.08-8.49-28.87-2.43
			C431.4,437.4,434.48,443.31,443.5,448.32z"/>
		<path class="st9" d="M439.41,431.56c0,0,11.35,2.58,16.68,7.61c5.34,5.04,7.9-3.35-2.29-9.1
			C442.44,423.67,431.18,428.92,439.41,431.56z"/>
		<g>
			<path class="st5" d="M434.9,466.23c-0.5,0.51-0.88,1.1-1.03,1.71c-0.16,0.61-0.13,1.22,0.03,1.81c0.32,1.18,1.15,2.25,2.02,3.25
				l0.66,0.76c0.23,0.25,0.49,0.47,0.73,0.71l0.72,0.73c0.26,0.23,0.52,0.46,0.77,0.69c1,0.97,2.08,1.84,3.06,2.91
				c-1.32-0.54-2.62-1.17-3.79-1.99c-0.62-0.37-1.17-0.83-1.72-1.3c-0.28-0.24-0.55-0.47-0.81-0.72l-0.75-0.8
				c-0.93-1.12-1.86-2.4-2.03-4.02c-0.1-0.79,0.06-1.63,0.44-2.31C433.6,466.97,434.21,466.47,434.9,466.23z"/>
		</g>
		<g>
			<path class="st5" d="M473.62,449.39c4.38-0.92,8.83-1.48,13.3-1.76c4.47-0.3,8.97-0.3,13.46,0.01c4.48,0.34,8.96,0.98,13.3,2.23
				c4.34,1.2,8.55,3.09,12.06,5.88c-1.92-1.14-3.92-2.11-6.01-2.86c-2.06-0.79-4.2-1.39-6.35-1.89c-2.15-0.48-4.32-0.91-6.52-1.18
				c-2.19-0.3-4.39-0.55-6.6-0.68c-4.42-0.34-8.86-0.39-13.3-0.34C482.53,448.88,478.08,449.04,473.62,449.39z"/>
		</g>
		<g>
			<path class="st5" d="M475.37,453.85c4.15-0.33,8.34-0.03,12.45,0.67c4.12,0.68,8.18,1.76,12.1,3.23
				c0.49,0.18,0.98,0.36,1.47,0.55l1.44,0.62c0.95,0.43,1.93,0.8,2.86,1.28c1.85,0.97,3.74,1.88,5.48,3.04
				c0.88,0.57,1.8,1.05,2.63,1.69l2.52,1.85c0.85,0.6,1.62,1.32,2.4,2c0.79,0.68,1.56,1.37,2.32,2.07
				c-3.42-2.36-6.82-4.69-10.46-6.61c-3.59-2-7.35-3.67-11.19-5.1c-3.83-1.47-7.79-2.59-11.8-3.49
				C483.59,454.78,479.52,454.1,475.37,453.85z"/>
		</g>
		<g>
			<path class="st5" d="M392.72,431.47c3.12-0.21,6.26-0.11,9.38,0.21c3.12,0.32,6.23,0.84,9.27,1.65c3.03,0.84,6.05,1.82,8.85,3.32
				c2.8,1.46,5.42,3.34,7.46,5.72c-2.45-1.96-5.16-3.42-7.96-4.67c-0.71-0.28-1.43-0.57-2.13-0.87l-2.18-0.75
				c-0.72-0.27-1.46-0.47-2.2-0.69c-0.74-0.21-1.47-0.45-2.22-0.62c-2.97-0.82-6.01-1.39-9.05-1.94
				C398.89,432.33,395.82,431.84,392.72,431.47z"/>
		</g>
		<g>
			<path class="st5" d="M385.37,460.1c2.66-2.53,5.77-4.57,9.03-6.3c3.26-1.73,6.69-3.12,10.21-4.22c3.55-1.01,7.14-1.9,10.81-2.28
				c1.82-0.29,3.67-0.32,5.5-0.45c0.92-0.06,1.84,0,2.75,0c0.92,0.01,1.83,0.03,2.75,0.07c-1.82,0.27-3.64,0.38-5.44,0.66l-2.7,0.41
				c-0.9,0.12-1.79,0.28-2.68,0.46l-2.67,0.51l-2.64,0.63l-1.32,0.3l-1.31,0.37c-0.87,0.25-1.74,0.48-2.61,0.75
				c-3.46,1.05-6.84,2.35-10.14,3.83C391.63,456.37,388.39,458.03,385.37,460.1z"/>
		</g>
	</g>
	<g>
		<path class="st5" d="M536.38,645.86c-2.3-4.58-4.91-9.1-7.63-13.51c-2.74-4.41-5.66-8.71-8.75-12.88
			c-3.13-4.14-6.46-8.14-10.03-11.93c-3.63-3.72-7.51-7.21-11.75-10.27c4.38,2.85,8.45,6.16,12.28,9.74
			c3.77,3.64,7.31,7.51,10.67,11.53c3.32,4.06,6.47,8.26,9.45,12.58c2.98,4.34,5.8,8.73,8.41,13.36c0.41,0.72,0.15,1.63-0.57,2.04
			c-0.72,0.41-1.63,0.15-2.04-0.57c-0.01-0.02-0.02-0.04-0.03-0.06L536.38,645.86z"/>
	</g>
	<g>
		<path class="st5" d="M429.85,516.87c0.96,1.36,1.66,2.67,2.31,4.09c0.63,1.4,1.13,2.86,1.49,4.35c0.36,1.49,0.5,3.02,0.46,4.53
			c-0.03,1.51-0.39,2.99-0.87,4.38c0.24-1.46,0.33-2.91,0.12-4.34c-0.21-1.42-0.58-2.8-1.14-4.11c-0.56-1.3-1.24-2.55-2.03-3.72
			c-0.78-1.15-1.69-2.31-2.6-3.21l-0.03-0.03c-0.59-0.59-0.59-1.54,0-2.12c0.59-0.59,1.54-0.59,2.12,0
			C429.75,516.73,429.81,516.8,429.85,516.87z"/>
	</g>
	<g>
		<path class="st5" d="M538.68,523.3c-2.93-0.1-5.83,0.06-8.71,0.35c-2.87,0.3-5.72,0.78-8.51,1.48c-2.8,0.66-5.54,1.55-8.21,2.66
			c-2.69,1.05-5.24,2.43-7.83,3.82c2.25-1.87,4.66-3.63,7.35-4.88c1.3-0.72,2.71-1.2,4.07-1.78c1.41-0.45,2.81-0.95,4.26-1.27
			c2.88-0.7,5.83-1.12,8.79-1.19C532.84,522.39,535.82,522.62,538.68,523.3z"/>
	</g>
	<path class="st9" d="M532.98,648.59c0,0,5.75-2.63,7.9-14.61s15.32,5.51,19.87,0c4.55-5.51-6.23-11.45,12.21-4.29
		c18.44,7.16,18.19-9.59,33.04,6.68c12.45,13.65,0.96,27.06-3.35,23.94c0,0-2.15,22.27-22.99,14.84
		c-1.71,4.61-20.68,11.27-25.62-2.15c0,0-11.12,7.02-21.07-4.07C524.6,659.61,532.98,648.59,532.98,648.59z"/>
	<g>
		<g>
			<path class="st5" d="M532.89,648.48c2.22-1.48,3.63-3.75,4.75-6.07c1.05-2.37,1.74-4.9,2.2-7.45c0.24-1.22,0.35-2.73,1.13-4.11
				c0.39-0.69,1-1.38,1.82-1.77c0.82-0.4,1.71-0.45,2.49-0.38c1.56,0.18,2.87,0.74,4.12,1.32c1.24,0.59,2.42,1.24,3.58,1.84
				c1.16,0.6,2.32,1.18,3.45,1.57c1.12,0.39,2.24,0.53,2.82,0.16c0.16-0.08,0.3-0.2,0.43-0.36c0.14-0.15,0.32-0.4,0.44-0.6
				c0.26-0.43,0.43-0.89,0.51-1.39c0.08-0.5,0.07-1.03-0.01-1.6c-0.07-0.6-0.23-1.16-0.31-2.04c-0.01-0.23-0.02-0.5,0.05-0.86
				c0.06-0.35,0.3-0.88,0.73-1.2c0.42-0.32,0.81-0.4,1.1-0.45c0.3-0.04,0.54-0.03,0.77-0.02c0.87,0.07,1.54,0.26,2.22,0.44
				c1.35,0.38,2.61,0.83,3.87,1.31c1.25,0.48,2.49,0.97,3.73,1.47c1.23,0.51,2.39,0.97,3.62,1.35c2.43,0.75,4.96,1.13,7.47,0.91
				c2.53-0.18,4.94-1.13,7.61-1.81c1.34-0.31,2.79-0.47,4.2-0.23c1.41,0.24,2.7,0.83,3.87,1.54c2.34,1.44,4.27,3.34,6.11,5.27
				c1.88,1.91,3.53,4.1,4.74,6.54c1.2,2.44,1.91,5.17,1.88,7.94c-0.03,2.77-0.81,5.56-2.36,7.93c-0.78,1.18-1.75,2.28-3.02,3.11
				c-0.64,0.41-1.36,0.75-2.2,0.89c-0.83,0.14-1.86,0-2.65-0.56l1.67-0.76c-0.28,2.89-1.05,5.58-2.24,8.21
				c-1.2,2.58-2.94,5.07-5.4,6.83c-2.44,1.77-5.5,2.64-8.43,2.66c-2.95,0.04-5.8-0.6-8.48-1.52l1.94-0.91
				c-0.38,0.99-0.95,1.59-1.49,2.14c-0.56,0.53-1.14,0.97-1.74,1.36c-1.2,0.78-2.45,1.38-3.74,1.86c-2.58,0.95-5.3,1.49-8.1,1.49
				c-2.78-0.01-5.69-0.66-8.16-2.26c-2.48-1.59-4.28-4.12-5.18-6.77l2.15,0.73c-1.01,0.58-1.9,0.94-2.88,1.28
				c-0.97,0.33-1.96,0.58-2.97,0.75c-2.02,0.34-4.11,0.33-6.12-0.07c-2.02-0.4-3.93-1.19-5.65-2.25c-1.72-1.06-3.21-2.42-4.52-3.89
				c-1.33-1.46-2.46-3.18-3.17-5.06c-0.72-1.88-1.02-3.9-0.9-5.87c0.13-1.97,0.63-3.88,1.36-5.67
				C530.72,651.67,531.64,650.03,532.89,648.48z M533.08,648.71c-1.91,3.12-3.23,6.84-3.17,10.47c0.01,3.65,1.61,7.07,4.23,9.54
				c2.56,2.56,5.72,4.49,9.18,5c1.72,0.25,3.47,0.21,5.18-0.13c0.85-0.17,1.69-0.42,2.51-0.72c0.8-0.29,1.65-0.7,2.27-1.08
				c0.69-0.43,1.6-0.21,2.03,0.48c0.05,0.08,0.09,0.15,0.12,0.23l0.01,0.02c0.84,2.17,2.21,4.02,4.09,5.18
				c1.87,1.18,4.18,1.66,6.52,1.67c2.34,0.01,4.74-0.45,6.97-1.27c1.11-0.42,2.19-0.92,3.16-1.52c0.48-0.3,0.93-0.63,1.31-0.97
				c0.37-0.34,0.67-0.73,0.75-0.95l0,0c0.28-0.78,1.15-1.19,1.93-0.91l0.01,0c2.43,0.89,4.95,1.49,7.43,1.51
				c2.48,0.02,4.89-0.62,6.89-2c2.01-1.37,3.6-3.39,4.76-5.67c1.16-2.27,1.93-4.85,2.34-7.34l0.03-0.18
				c0.09-0.54,0.6-0.91,1.14-0.82c0.2,0.03,0.37,0.12,0.51,0.24c0.53,0.48,1.64,0.35,2.63-0.24c0.99-0.57,1.89-1.45,2.62-2.44
				c1.46-2,2.3-4.49,2.45-7.02c0.16-2.54-0.4-5.12-1.49-7.46c-1.08-2.36-2.67-4.46-4.49-6.35c-1.81-1.9-3.74-3.73-5.96-5.03
				c-1.11-0.63-2.3-1.11-3.53-1.27c-1.23-0.18-2.46,0.04-3.68,0.39c-2.43,0.76-4.96,1.94-7.74,2.31c-2.77,0.41-5.61,0.13-8.29-0.53
				c-1.33-0.34-2.67-0.77-3.91-1.22c-1.24-0.46-2.48-0.91-3.72-1.33c-1.24-0.42-2.48-0.85-3.69-1.19c-0.59-0.16-1.22-0.31-1.67-0.34
				c-0.21-0.04-0.38,0.09-0.05-0.1c0.16-0.12,0.24-0.33,0.24-0.36c0.01-0.04,0,0.03,0.01,0.13c0.04,0.44,0.2,1.17,0.28,1.9
				c0.09,0.74,0.11,1.55-0.04,2.36c-0.14,0.81-0.45,1.62-0.88,2.32c-0.23,0.36-0.44,0.65-0.75,0.99c-0.31,0.34-0.69,0.65-1.12,0.87
				c-0.87,0.47-1.84,0.56-2.65,0.48c-0.83-0.08-1.56-0.29-2.25-0.55c-1.36-0.52-2.57-1.18-3.74-1.83c-1.17-0.66-2.31-1.33-3.44-1.91
				c-1.13-0.58-2.29-1.11-3.37-1.28c-1.09-0.16-1.86,0.12-2.43,1.04c-0.28,0.45-0.5,1-0.67,1.58c-0.16,0.56-0.3,1.24-0.47,1.9
				c-0.63,2.63-1.55,5.22-2.88,7.59c-0.68,1.18-1.45,2.31-2.35,3.32C535.34,647.21,534.26,648.15,533.08,648.71z"/>
		</g>
	</g>
	<path class="st16" d="M545.31,657.17c0,0,2.27,4.85,10.74,3.54c0,0-3.88,5.04-2,12.31"/>
	<path class="st16" d="M572.46,649.05c0,0,18.85,10.1,7.21,26.12"/>
	<path class="st16" d="M602.66,660.33c0,0,1.23-6.41-5.03-11.8c-6.26-5.38-4.88-7.89-4.88-7.89"/>
	<path class="st17" d="M365.84,660.49c0,0,6.59-3.23,8.98-10.24c0,0,2.26,15.7,17.89,16.69"/>
	<path class="st17" d="M393.62,637.07c0,0,5.55-0.49,10.21,5.16"/>
	<path class="st6" d="M472.14,792.73c0,0-14.3-6.95-21.02-1.41c0,0,3.32,3.9-7.54,6.86c-10.86,2.96-23.86,5.69-21.72,19.96
		c2.14,14.27,16.64,23.31,25.02,15.25c0,0,7.06,8.67,20.39,0.33c0,0,13.49,8.89,25.63-3.42c12.87-13.05,8.66-33.38,8.66-33.38
		s-15.19,4.1-19.53-3.1C476.6,784.82,472.39,782.68,472.14,792.73z"/>
	<g>
		<path class="st5" d="M472.21,792.84c-0.04,0.01-0.11,0.01-0.15-0.01l-0.05-0.02l-0.08-0.03l-0.16-0.06l-0.32-0.13l-0.64-0.24
			l-1.3-0.45c-0.87-0.29-1.74-0.56-2.61-0.81c-1.75-0.49-3.54-0.86-5.33-1.07c-1.78-0.2-3.58-0.27-5.31,0.01
			c-1.72,0.26-3.34,0.89-4.59,1.95l0.11-1.23c0.42,0.54,0.59,1.02,0.68,1.62c0.09,0.58-0.03,1.17-0.22,1.69
			c-0.43,1.03-1.18,1.75-1.93,2.29c-1.51,1.11-3.16,1.75-4.8,2.33c-3.3,1.07-6.51,1.8-9.66,2.87c-3.12,1.05-6.16,2.32-8.65,4.23
			c-2.48,1.9-4.14,4.65-4.55,7.78c-0.37,3.13,0.13,6.46,1.23,9.52c1.11,3.07,2.88,5.94,5.24,8.23c2.33,2.3,5.31,4.05,8.54,4.57
			c1.61,0.26,3.26,0.15,4.81-0.32c1.53-0.51,2.93-1.38,4.08-2.51c0.18-0.18,0.47-0.17,0.65,0.01l0.01,0.01l0.03,0.03
			c1.17,1.26,2.77,2.22,4.42,2.81c1.67,0.6,3.45,0.82,5.21,0.72l1.32-0.14c0.44-0.06,0.87-0.19,1.3-0.28
			c0.87-0.15,1.7-0.53,2.54-0.8c0.83-0.33,1.62-0.75,2.43-1.12l2.31-1.38c0.31-0.19,0.69-0.18,0.99-0.01l0.04,0.02
			c4.33,2.48,9.75,3.42,14.55,2.23c2.41-0.6,4.72-1.65,6.7-3.22l0.77-0.55l0.7-0.64l1.4-1.28c0.43-0.46,0.83-0.96,1.25-1.44
			c0.4-0.5,0.87-0.93,1.2-1.48c2.97-4.11,4.97-8.93,5.83-14.01c0.49-2.52,0.71-5.11,0.74-7.7c0.01-2.57-0.09-5.22-0.51-7.7
			l1.45,0.89c-3.36,0.77-6.7,1.16-10.14,1.03c-1.71-0.09-3.45-0.31-5.12-0.87c-1.66-0.57-3.32-1.49-4.48-2.93
			c-0.3-0.34-0.54-0.75-0.78-1.12l-0.62-1.06c-0.41-0.7-0.85-1.39-1.3-2.06c-0.91-1.33-1.89-2.65-3.05-3.67
			c-0.57-0.49-1.27-0.9-1.86-0.84c-0.6,0.05-1.07,0.72-1.37,1.44c-0.29,0.73-0.47,1.53-0.61,2.33c-0.06,0.4-0.12,0.81-0.17,1.22
			C472.34,791.87,472.29,792.44,472.21,792.84z M472.08,792.62c-0.04-0.43-0.09-0.69-0.06-1.14c0-0.42,0.03-0.83,0.06-1.25
			c0.07-0.83,0.19-1.67,0.46-2.5c0.15-0.41,0.31-0.83,0.6-1.21c0.28-0.38,0.71-0.72,1.24-0.83c0.52-0.11,1.03,0.01,1.46,0.19
			c0.44,0.17,0.82,0.42,1.18,0.67c1.41,1.05,2.48,2.38,3.5,3.71c0.5,0.67,0.99,1.36,1.45,2.05l0.69,1.05
			c0.23,0.31,0.42,0.61,0.68,0.88c0.98,1.1,2.36,1.78,3.83,2.21c1.48,0.4,3.05,0.59,4.64,0.61c3.16,0.03,6.43-0.47,9.47-1.27l0.02,0
			c0.62-0.16,1.25,0.21,1.42,0.83l0.02,0.07c0.54,2.76,0.76,5.43,0.78,8.18c0.02,2.73-0.17,5.46-0.66,8.16
			c-0.18,1.36-0.57,2.69-0.89,4.02c-0.2,0.66-0.43,1.31-0.64,1.97l-0.33,0.98l-0.4,0.95l-0.82,1.9c-0.31,0.62-0.66,1.22-0.99,1.83
			c-0.61,1.25-1.5,2.33-2.29,3.47c-0.37,0.59-0.9,1.06-1.34,1.59c-0.47,0.51-0.92,1.04-1.4,1.54l-1.56,1.39l-0.78,0.69l-0.87,0.6
			c-2.23,1.69-4.89,2.86-7.63,3.49c-2.75,0.64-5.63,0.63-8.37,0.09c-2.75-0.55-5.33-1.5-7.77-3.02l1.03,0.01l-2.52,1.35
			c-0.89,0.36-1.76,0.77-2.66,1.08c-1.83,0.59-3.72,1.03-5.67,1.05c-1.93,0.03-3.88-0.29-5.67-1.03c-1.8-0.74-3.41-1.8-4.73-3.29
			l0.68,0.04c-1.27,1.19-2.82,2.11-4.49,2.62c-1.68,0.49-3.46,0.59-5.17,0.3c-3.44-0.55-6.52-2.37-9.04-4.67
			c-5.02-4.67-8.11-11.5-7.71-18.62c0.03-0.44,0.14-0.89,0.2-1.33c0.1-0.44,0.11-0.9,0.28-1.32c0.31-0.85,0.53-1.75,1.04-2.53
			c0.83-1.65,2.13-2.98,3.48-4.15c2.84-2.21,6.1-3.58,9.35-4.61c3.24-1.04,6.59-1.8,9.72-2.7c1.53-0.49,3.07-1.07,4.3-1.92
			c0.62-0.41,1.13-0.92,1.37-1.44c0.11-0.26,0.18-0.51,0.15-0.77c0-0.24-0.14-0.57-0.23-0.7l-0.08-0.12
			c-0.24-0.36-0.15-0.85,0.19-1.11c1.62-1.26,3.59-1.91,5.5-2.08c1.93-0.19,3.83-0.03,5.67,0.31c1.84,0.36,3.63,0.88,5.37,1.5
			c0.87,0.31,1.73,0.65,2.58,1.02l1.26,0.58l0.62,0.31l0.31,0.16l0.15,0.08l0.08,0.04l0.03,0.02
			C472.13,792.58,472.09,792.59,472.08,792.62z"/>
	</g>
	<path class="st9" d="M530.57,802.23c0,0,9.98,2.58,11.99,11.35c0,0,0-12.03,6.16-11.35c6.16,0.68,9.72,17.27,17.77,18.46
		c8.06,1.18,9.33-0.2,13.67-4.25c0,0,5.05,3.77,3.87,15.15c-1.18,11.37-9.72,19.67-25.59,16.11c-15.88-3.55-27.49-8.06-37.2-5.69
		c-9.72,2.37-33.89,3.79-38.39-9c-4.5-12.8-2.37-15.4-2.37-15.4s-3.92-1.49-1.31-8.77c2.61-7.28,15.3-8.77,15.3-8.77
		s1.31-6.34,10.63-7.28C514.43,791.85,530.57,802.23,530.57,802.23z"/>
	<g>
		<path class="st5" d="M530.63,802.09c1.38,0.33,2.78,0.85,4.09,1.49c1.31,0.65,2.56,1.45,3.71,2.38c1.17,0.92,2.16,2.06,3.02,3.3
			c0.89,1.23,1.43,2.68,1.87,4.14l-1.53,0.17c0-2.43,0.21-4.8,0.93-7.19c0.37-1.18,0.88-2.38,1.77-3.44
			c0.44-0.53,1.01-1.01,1.69-1.34c0.67-0.33,1.44-0.48,2.16-0.48c0.72-0.02,1.5,0.19,2.14,0.48c0.67,0.29,1.2,0.72,1.72,1.13
			c0.98,0.87,1.76,1.84,2.48,2.82c1.42,1.96,2.61,3.99,3.84,5.94c1.22,1.95,2.49,3.85,3.98,5.39c0.75,0.77,1.56,1.43,2.42,1.88
			c0.88,0.48,1.68,0.58,2.9,0.74c2.24,0.28,4.5,0.44,6.32-0.19c1.81-0.59,3.44-2.23,5.18-3.79l0.05-0.05
			c0.44-0.39,1.09-0.39,1.53-0.04c0.47,0.38,0.69,0.67,1,1.02c0.27,0.34,0.52,0.69,0.75,1.05c0.44,0.72,0.83,1.47,1.13,2.24
			c0.62,1.54,0.98,3.13,1.19,4.72c0.35,3.2,0.18,6.36-0.48,9.47c-0.69,3.1-2.03,6.08-4.05,8.54c-0.46,0.65-1.08,1.16-1.62,1.74
			c-0.58,0.53-1.23,1.01-1.85,1.49c-1.34,0.85-2.74,1.6-4.23,2.1c-2.99,1.03-6.17,1.27-9.27,1.08c-0.77-0.08-1.55-0.13-2.32-0.23
			l-2.3-0.41c-1.52-0.3-3.01-0.64-4.51-0.98c-6-1.35-11.96-2.91-17.95-3.99c-2.99-0.52-6-0.89-8.97-0.86
			c-0.74-0.02-1.48,0.08-2.21,0.11c-0.73,0.08-1.46,0.16-2.17,0.29c-1.37,0.27-2.96,0.7-4.49,0.98c-6.16,1.13-12.44,1.49-18.73,0.78
			c-3.14-0.38-6.29-1.01-9.32-2.27c-2.99-1.24-5.97-3.18-7.86-6.17c-0.23-0.37-0.43-0.76-0.64-1.14c-0.2-0.39-0.35-0.8-0.52-1.2
			c-0.3-0.79-0.52-1.49-0.78-2.24c-0.49-1.49-0.93-3-1.32-4.53c-0.38-1.54-0.7-3.11-0.88-4.74c-0.09-0.82-0.13-1.66-0.09-2.53
			c0.03-0.44,0.06-0.89,0.15-1.37c0.05-0.24,0.1-0.48,0.19-0.75c0.05-0.14,0.08-0.26,0.16-0.42c0.09-0.18,0.08-0.24,0.36-0.62
			l0.66,2.46c-0.36-0.15-0.49-0.24-0.69-0.38c-0.18-0.12-0.35-0.26-0.51-0.4c-0.32-0.28-0.59-0.59-0.82-0.93
			c-0.46-0.67-0.76-1.4-0.94-2.13c-0.34-1.46-0.23-2.85,0.01-4.13c0.15-0.63,0.27-1.27,0.49-1.86l0.3-0.9l0.44-0.94
			c0.58-1.27,1.51-2.29,2.45-3.2c1.98-1.74,4.26-2.85,6.56-3.69c2.33-0.81,4.65-1.36,7.13-1.68l-1.07,0.98
			c0.16-0.62,0.33-1.01,0.56-1.48c0.22-0.44,0.46-0.87,0.74-1.26c0.55-0.8,1.21-1.52,1.95-2.13c1.46-1.24,3.2-2.07,4.98-2.54
			c1.78-0.47,3.56-0.67,5.42-0.61c1.81,0.16,3.57,0.47,5.25,0.99c3.38,0.98,6.57,2.39,9.63,4
			C524.82,798.39,527.83,800.16,530.63,802.09z M530.51,802.36c-3.03-1.71-6.06-3.24-9.19-4.63c-3.13-1.36-6.33-2.57-9.59-3.36
			c-1.63-0.42-3.28-0.62-4.9-0.69c-1.58,0.03-3.23,0.29-4.75,0.77c-1.52,0.49-2.92,1.24-4.06,2.25c-0.58,0.5-1.07,1.08-1.47,1.71
			c-0.21,0.31-0.39,0.64-0.53,0.97c-0.15,0.31-0.29,0.72-0.33,0.93c-0.11,0.52-0.53,0.9-1.03,0.98l-0.04,0.01
			c-2.16,0.34-4.41,0.94-6.47,1.74c-2.06,0.82-4.02,1.88-5.53,3.29c-0.71,0.73-1.35,1.5-1.73,2.38l-0.3,0.65l-0.24,0.77
			c-0.18,0.51-0.26,1.03-0.38,1.54c-0.18,1.01-0.21,2.02,0,2.84c0.11,0.41,0.27,0.77,0.48,1.06c0.11,0.14,0.22,0.27,0.34,0.38
			c0.06,0.06,0.12,0.1,0.18,0.14c0.04,0.03,0.17,0.09,0.07,0.05l-0.03-0.01c-0.83-0.34-1.78,0.06-2.11,0.89
			c-0.34,0.83,0.06,1.78,0.89,2.11c0.7,0.28,1.48,0.05,1.91-0.53c0.16-0.22,0.08-0.11,0.09-0.11c-0.01,0.01-0.02,0.08-0.04,0.12
			c-0.03,0.1-0.06,0.23-0.08,0.37c-0.05,0.28-0.07,0.6-0.09,0.92c-0.02,0.66,0.02,1.36,0.1,2.07c0.15,1.42,0.44,2.87,0.79,4.31
			c0.36,1.44,0.78,2.88,1.25,4.31c0.24,0.7,0.47,1.46,0.72,2.11c0.13,0.3,0.24,0.62,0.39,0.91c0.16,0.29,0.31,0.59,0.48,0.87
			c1.38,2.28,3.74,3.94,6.36,5.08c2.63,1.16,5.55,1.8,8.49,2.21c2.95,0.39,5.96,0.51,8.97,0.43c3.01-0.07,6.02-0.31,8.99-0.78
			c1.49-0.22,2.88-0.57,4.53-0.85c0.8-0.12,1.6-0.18,2.4-0.25c0.8,0,1.6-0.06,2.39-0.01c3.17,0.11,6.26,0.64,9.29,1.3
			c6.05,1.34,11.91,3.17,17.86,4.66c2.98,0.73,5.93,1.55,8.95,1.73c3.01,0.23,6.07-0.06,8.89-1.06c2.83-0.97,5.33-2.79,7.11-5.16
			c1.78-2.37,2.88-5.2,3.39-8.12c0.48-2.92,0.49-5.98,0.04-8.86c-0.26-1.44-0.65-2.84-1.24-4.13c-0.28-0.65-0.65-1.25-1.03-1.82
			c-0.2-0.28-0.41-0.55-0.63-0.8c-0.2-0.23-0.49-0.51-0.62-0.61l1.58-0.09c-0.84,0.8-1.68,1.63-2.63,2.43
			c-0.94,0.79-2.05,1.59-3.35,2.05c-1.29,0.46-2.63,0.6-3.88,0.61c-1.26,0.02-2.46-0.11-3.66-0.25c-0.6-0.09-1.14-0.12-1.88-0.3
			c-0.69-0.16-1.33-0.43-1.94-0.75c-1.2-0.65-2.19-1.51-3.06-2.42c-1.73-1.83-3.02-3.87-4.25-5.88c-1.22-2.01-2.34-4.05-3.61-5.9
			c-1.24-1.81-2.78-3.6-4.46-3.64c-0.87-0.04-1.64,0.28-2.29,1c-0.65,0.7-1.13,1.67-1.49,2.69c-0.71,2.06-1.07,4.36-1.18,6.59
			l0,0.02c-0.02,0.43-0.39,0.76-0.81,0.74c-0.35-0.02-0.63-0.26-0.71-0.58c-0.33-1.31-0.73-2.63-1.45-3.8
			c-0.7-1.18-1.54-2.3-2.58-3.24c-1.02-0.96-2.16-1.8-3.38-2.52C533.16,803.47,531.9,802.83,530.51,802.36z"/>
	</g>
	<g>
		<path class="st5" d="M479.67,817.15c1.56-1.07,3.1-1.87,4.74-2.6c1.63-0.71,3.31-1.29,5.02-1.71c1.71-0.44,3.46-0.67,5.21-0.73
			c1.75-0.1,3.49,0.14,5.18,0.45c-1.72-0.1-3.44-0.13-5.12,0.18c-1.68,0.27-3.32,0.69-4.89,1.31c-1.57,0.6-3.09,1.34-4.52,2.19
			c-1.42,0.85-2.84,1.84-4,2.87l-0.04,0.04c-0.53,0.47-1.33,0.42-1.8-0.11c-0.47-0.53-0.42-1.33,0.11-1.8
			C479.58,817.22,479.63,817.18,479.67,817.15z"/>
	</g>
	<g>
		<path class="st5" d="M494.37,798.8c1.38,0.03,2.61,0.18,3.89,0.4c1.26,0.22,2.51,0.52,3.72,0.9c1.22,0.37,2.39,0.86,3.52,1.41
			c1.14,0.55,2.18,1.25,3.18,1.99c-1.11-0.56-2.23-1.06-3.41-1.4c-1.17-0.35-2.36-0.61-3.56-0.76c-1.2-0.16-2.41-0.24-3.61-0.24
			c-1.19,0-2.43,0.07-3.53,0.24l-0.03,0c-0.7,0.11-1.35-0.37-1.45-1.07c-0.11-0.7,0.37-1.35,1.07-1.45
			C494.22,798.8,494.3,798.8,494.37,798.8z"/>
	</g>
	<g>
		<path class="st5" d="M448.26,806.42c-1.51,2.03-2.75,4.16-3.73,6.38c-0.95,2.22-1.58,4.55-1.71,6.91
			c-0.15,2.34,0.11,4.74,0.92,7.01l0.26,0.87c0.08,0.29,0.25,0.55,0.36,0.83l0.74,1.68c0.53,1.11,1.22,2.14,1.78,3.3
			c-0.89-0.89-1.8-1.79-2.58-2.81c-0.68-1.08-1.51-2.1-1.95-3.33c-1.17-2.34-1.58-5.05-1.44-7.67c0.18-2.64,0.98-5.21,2.28-7.45
			C444.5,809.89,446.19,807.89,448.26,806.42z"/>
	</g>
	<g>
		<path class="st5" d="M468.92,806.42c-1.51,2.03-2.75,4.16-3.73,6.38c-0.95,2.22-1.58,4.55-1.71,6.91
			c-0.15,2.34,0.11,4.74,0.92,7.01l0.26,0.87c0.08,0.29,0.25,0.55,0.36,0.83l0.74,1.68c0.53,1.11,1.22,2.14,1.78,3.3
			c-0.89-0.89-1.8-1.79-2.58-2.81c-0.68-1.08-1.51-2.1-1.95-3.33c-1.17-2.34-1.58-5.05-1.44-7.67c0.18-2.64,0.98-5.21,2.28-7.45
			C465.16,809.89,466.85,807.89,468.92,806.42z"/>
	</g>
</g>
</svg>
