<?xml version="1.0" standalone="no"?>
<!DOCTYPE svg PUBLIC "-//W3C//DTD SVG 20010904//EN"
 "http://www.w3.org/TR/2001/REC-SVG-20010904/DTD/svg10.dtd">
<svg version="1.0" xmlns="http://www.w3.org/2000/svg"
 width="2690.000000pt" height="3079.000000pt" viewBox="0 0 2690.000000 3079.000000"
 preserveAspectRatio="xMidYMid meet">
<metadata>
Created by potrace 1.16, written by Peter Selinger 2001-2019
</metadata>
<g transform="translate(0.000000,3079.000000) scale(0.100000,-0.100000)"
fill="#000000" stroke="none">
<path d="M21635 28479 c-654 -61 -1277 -313 -1795 -728 -90 -72 -365 -338
-443 -428 l-36 -42 -108 44 c-850 341 -1788 524 -2953 576 -295 13 -1148 7
-1465 -10 -300 -17 -627 -40 -790 -57 -919 -94 -1841 -358 -2704 -775 l-185
-89 -140 138 c-143 140 -212 201 -322 285 -367 278 -838 485 -1299 572 -275
51 -690 65 -947 31 -716 -93 -1341 -397 -1838 -896 -255 -256 -439 -514 -600
-845 -212 -435 -310 -864 -310 -1360 0 -519 112 -983 347 -1435 233 -449 601
-867 998 -1133 33 -22 61 -41 62 -42 2 -1 -8 -40 -22 -86 -146 -484 -248
-1045 -285 -1569 -6 -80 -13 -271 -16 -424 l-5 -280 -51 -115 c-259 -594 -438
-1274 -515 -1961 -25 -226 -25 -874 0 -1085 55 -452 152 -838 304 -1200 295
-702 751 -1278 1403 -1772 132 -100 392 -277 426 -290 21 -8 18 -19 -26 -83
-22 -33 -105 -168 -185 -302 -79 -134 -150 -252 -158 -262 -14 -20 -13 -22
-497 509 -1944 2133 -2874 3149 -2914 3188 -63 60 -151 103 -244 119 -244 42
-497 -132 -542 -371 -5 -29 -10 -184 -10 -342 0 -159 -3 -289 -6 -289 -4 0
-45 22 -93 49 -568 320 -1219 512 -1963 578 -224 19 -734 22 -963 4 -231 -18
-650 -74 -727 -97 -17 -5 -18 -31 -18 -372 l1 -367 85 -69 c682 -556 1440
-893 2261 -1005 164 -23 388 -41 503 -41 l74 0 -40 -42 c-107 -112 -303 -369
-416 -543 -248 -384 -466 -846 -611 -1291 -132 -407 -227 -832 -272 -1225 -26
-226 -25 -294 6 -354 35 -68 99 -108 183 -113 61 -4 66 -2 192 63 469 245 873
543 1239 916 598 610 994 1357 1170 2204 13 65 26 119 29 122 4 5 2718 -2964
2737 -2995 9 -15 1 -50 -44 -188 -138 -420 -230 -836 -273 -1229 -21 -196 -25
-664 -6 -830 41 -360 116 -649 246 -947 l16 -37 -53 -32 c-282 -173 -591 -487
-765 -776 -227 -379 -335 -768 -349 -1258 -6 -230 5 -410 38 -620 106 -668
328 -1110 765 -1525 362 -343 861 -575 1370 -635 234 -28 435 -20 869 36 2200
280 2516 318 2553 304 618 -226 1206 -349 1952 -410 603 -49 1414 -39 2095 25
593 57 1249 181 1744 330 l134 40 156 -34 c86 -19 383 -85 661 -146 278 -61
658 -145 845 -186 965 -213 1212 -265 1325 -280 179 -23 546 -15 719 16 789
141 1451 629 1800 1328 141 284 251 667 307 1072 25 179 25 601 1 760 -69 446
-214 797 -471 1140 -66 88 -292 326 -379 399 l-39 32 80 122 c362 560 565
1143 658 1892 25 201 30 719 10 975 -82 1041 -475 2184 -1126 3281 l-92 154
24 17 c873 628 1471 1322 1898 2202 330 678 519 1393 592 2231 20 236 17 1019
-5 1265 -82 889 -276 1753 -581 2583 l-54 148 62 41 c189 128 365 277 542 460
471 488 775 1091 888 1758 33 196 46 350 46 570 0 759 -239 1451 -716 2070
-114 148 -416 450 -564 564 -535 412 -1119 645 -1775 706 -127 12 -479 11
-610 -1z m645 -425 c805 -93 1548 -522 2024 -1167 95 -129 92 -133 -17 -31
-881 830 -2171 1079 -3297 637 -296 -117 -602 -295 -843 -491 l-78 -64 -87 47
c-48 25 -115 60 -149 77 -35 18 -63 37 -63 44 0 6 53 62 118 125 500 485 1094
761 1792 832 106 11 477 6 600 -9z m-13100 -479 c509 -69 984 -280 1375 -610
113 -96 222 -202 214 -208 -7 -6 -252 -152 -261 -155 -4 -2 -34 19 -67 47
-150 124 -402 278 -616 374 -996 450 -2167 301 -3013 -383 -52 -41 -110 -88
-130 -105 -41 -32 -39 -29 70 100 468 556 1135 898 1873 959 99 8 442 -4 555
-19z m7145 -89 c17 -3 93 -7 170 -11 474 -20 1025 -94 1532 -206 1442 -317
2651 -1045 3630 -2186 854 -996 1545 -2275 1948 -3607 555 -1836 535 -3568
-57 -4961 -369 -868 -955 -1609 -1733 -2192 -1318 -987 -3179 -1553 -5620
-1708 -822 -52 -1898 -52 -2765 0 -3309 200 -5437 1116 -6341 2731 -251 448
-397 929 -461 1514 -16 149 -16 717 0 870 35 329 77 583 138 845 92 392 239
835 384 1155 l48 105 5 375 c9 570 55 977 167 1465 265 1147 787 2158 1593
3082 150 173 529 551 707 705 959 832 2060 1422 3255 1742 491 131 905 199
1468 241 37 3 97 7 135 10 183 14 421 25 642 31 135 4 247 9 250 11 6 6 862
-5 905 -11z m-11149 -12243 c500 -548 963 -1056 1030 -1128 66 -71 524 -573
1018 -1115 1066 -1168 994 -1089 1848 -2024 372 -408 675 -742 674 -744 -2 -1
-64 11 -137 27 -371 82 -746 104 -998 60 -58 -11 -115 -19 -128 -19 -17 0
-118 105 -415 430 -216 237 -394 434 -396 438 -3 9 96 48 116 46 6 -1 12 2 12
8 0 5 4 7 9 4 5 -4 11 -3 13 1 4 11 86 63 98 63 5 0 10 5 10 12 0 6 3 9 6 5 3
-3 13 2 23 11 52 50 83 72 93 66 7 -4 8 -3 4 4 -4 7 18 38 51 74 84 90 145
176 137 191 -13 21 -177 197 -184 197 -4 0 -24 -27 -44 -59 -33 -55 -186 -225
-171 -191 4 8 -3 3 -16 -12 -33 -36 -147 -108 -164 -102 -7 3 -16 0 -21 -7 -5
-8 -3 -10 7 -4 11 6 12 5 2 -5 -10 -11 -16 -11 -31 3 -10 9 -23 17 -28 17 -5
0 -1 -5 9 -11 9 -5 17 -13 17 -17 0 -16 -160 -66 -171 -54 -124 131 -1849
2027 -1849 2032 0 7 112 46 123 42 4 -1 7 3 7 10 0 6 3 9 6 5 3 -3 15 3 27 14
11 10 27 19 34 19 8 0 26 11 40 24 15 14 30 23 35 20 4 -3 16 0 25 6 16 10 16
11 -2 6 -17 -5 -16 -3 5 14 74 60 189 187 247 271 l32 46 -90 99 c-49 55 -93
100 -97 102 -4 1 -28 -28 -52 -65 -25 -37 -66 -90 -91 -117 -46 -50 -47 -51
-67 -33 -20 18 -20 18 -17 0 2 -10 4 -22 4 -28 1 -5 6 -3 12 5 6 8 9 10 7 4
-5 -18 -87 -81 -138 -106 -25 -13 -47 -26 -50 -30 -11 -14 -81 -38 -92 -32 -7
4 -8 3 -4 -4 7 -11 -53 -32 -101 -35 -18 -2 -114 98 -489 508 -281 308 -487
542 -520 591 -115 173 -179 374 -186 584 -1 47 -1 203 0 347 2 245 3 262 20
256 11 -4 10 0 -5 11 -21 16 -23 25 -23 122 0 115 9 144 44 144 18 0 228 -225
932 -997z m-3581 617 c681 -50 1311 -224 1828 -507 76 -41 136 -77 134 -80 -3
-2 -54 5 -113 16 -60 11 -194 34 -299 51 -176 28 -200 35 -317 86 -554 239
-1182 386 -1798 420 -69 4 -136 11 -150 15 -38 11 555 10 715 -1z m18075
-3881 c110 -218 160 -496 139 -773 -20 -272 -89 -519 -225 -809 -143 -305
-262 -508 -392 -671 -183 -228 -374 -716 -446 -1136 -43 -251 -51 -566 -21
-794 18 -141 69 -362 108 -468 18 -49 21 -70 13 -79 -6 -7 -7 -10 -1 -6 10 5
89 -162 81 -170 -3 -4 -53 69 -132 191 -88 138 -175 386 -215 616 -27 148 -36
451 -20 616 26 261 111 579 216 815 72 160 152 296 301 514 75 110 168 254
206 320 277 472 415 1032 379 1532 -10 132 -21 208 -56 393 l-7 35 21 -33 c11
-17 35 -59 51 -93z m-9553 -747 c945 -381 2164 -632 3403 -702 102 -5 223 -12
270 -15 148 -9 1056 -5 1275 5 1142 54 2259 216 3465 504 264 64 756 192 773
203 13 8 0 -45 -45 -187 -108 -338 -262 -640 -488 -955 -155 -217 -229 -333
-299 -465 -179 -341 -291 -708 -336 -1098 -28 -238 -8 -651 41 -857 14 -59 13
-60 -9 -75 -346 -232 -616 -546 -812 -945 -132 -267 -219 -539 -279 -865 -89
-489 -94 -1162 -10 -1725 17 -119 53 -323 60 -347 6 -20 -34 -33 -292 -98
-1172 -292 -2781 -361 -3989 -169 -330 53 -665 133 -963 231 -99 32 -122 43
-117 56 3 9 26 92 50 186 126 489 186 948 186 1428 0 236 -2 264 -27 488 -68
598 -289 1122 -636 1504 l-45 50 24 80 c80 277 98 587 54 926 -70 532 -285
987 -613 1295 -58 55 -81 85 -110 148 -62 130 -30 93 -781 915 l-249 272 32
108 c17 59 42 144 56 189 l25 81 93 -43 c51 -24 183 -79 293 -123z m-1051
-1248 c475 -49 854 -168 1142 -357 258 -169 426 -355 556 -614 135 -270 207
-601 205 -948 -1 -182 -11 -223 -28 -115 -70 428 -271 980 -440 1206 -91 122
-273 291 -413 384 -196 130 -434 243 -685 326 -96 31 -408 115 -473 127 -53 9
-7 6 136 -9z m-1276 -3018 c218 -176 526 -353 793 -456 73 -28 139 -54 147
-59 8 -4 30 -52 49 -107 121 -357 145 -797 65 -1192 -115 -573 -429 -1005
-830 -1143 -95 -32 -106 -34 -244 -34 -164 0 -226 13 -348 70 -274 130 -518
425 -655 795 -45 121 -91 312 -113 465 -21 146 -24 456 -5 600 78 616 368
1106 766 1296 l80 38 105 -103 c58 -56 143 -133 190 -170z m14125 -123 c74
-48 164 -134 231 -216 380 -473 486 -1256 262 -1956 -119 -374 -339 -698 -600
-884 -79 -57 -229 -129 -318 -153 -101 -28 -331 -26 -425 3 -156 50 -317 152
-425 269 -397 435 -538 1170 -360 1875 31 123 93 306 109 322 5 5 47 17 93 27
430 90 894 327 1268 649 58 49 110 90 115 90 6 1 28 -11 50 -26z"/>
<path d="M17060 23080 c-600 -58 -1055 -305 -1332 -725 -344 -521 -337 -1203
20 -1740 68 -103 94 -137 190 -243 146 -163 182 -205 267 -314 282 -363 511
-729 750 -1203 199 -395 334 -711 444 -1042 70 -213 128 -348 212 -491 192
-331 431 -558 756 -720 323 -162 763 -235 1161 -192 596 65 1162 550 1433
1228 88 218 141 433 175 707 25 199 23 585 -5 787 -109 810 -497 1689 -1071
2428 -139 179 -250 303 -430 481 -582 575 -1216 917 -1893 1020 -152 23 -522
33 -677 19z"/>
<path d="M10875 22859 c-939 -67 -1810 -720 -2440 -1829 -397 -697 -644 -1547
-645 -2216 -1 -526 115 -1008 337 -1403 184 -327 467 -603 767 -751 198 -96
343 -130 565 -130 453 0 845 137 1149 400 265 230 463 583 557 995 187 819
607 1792 1028 2378 185 258 208 294 262 402 71 143 118 289 145 450 19 112 22
154 17 300 -8 246 -46 403 -148 612 -192 393 -548 666 -985 757 -168 35 -408
49 -609 35z m-370 -1833 c150 -68 243 -263 214 -447 -22 -142 -115 -271 -238
-332 -58 -28 -75 -32 -146 -32 -65 1 -91 5 -137 27 -333 154 -290 688 65 804
62 21 174 11 242 -20z"/>
<path d="M13600 19910 c-448 -43 -846 -162 -990 -296 -105 -98 -132 -246 -72
-396 172 -429 557 -743 1015 -828 l67 -12 0 -102 c0 -186 -44 -382 -119 -532
-98 -196 -257 -319 -478 -370 -99 -23 -271 -33 -397 -23 -410 33 -584 196
-707 664 -28 106 -44 135 -76 135 -28 0 -60 -47 -87 -130 -35 -103 -46 -254
-26 -364 41 -239 212 -458 456 -583 84 -43 76 -24 93 -213 32 -341 156 -727
318 -990 246 -398 617 -659 1078 -760 178 -38 304 -49 540 -45 310 4 501 39
727 129 532 214 864 690 952 1368 20 151 30 447 19 572 l-9 100 69 65 c241
229 321 571 201 865 -29 71 -49 96 -79 96 -31 0 -51 -28 -59 -80 -36 -238
-139 -473 -257 -587 -123 -117 -351 -194 -626 -209 -276 -15 -522 42 -688 161
-196 140 -337 428 -361 742 -7 81 -6 82 17 87 13 2 65 12 114 21 50 9 126 28
170 42 101 32 280 121 365 181 93 67 222 194 296 292 77 101 198 337 214 417
25 117 -19 256 -103 329 -115 100 -397 191 -747 239 -136 19 -682 29 -830 15z
m337 -210 c221 -15 363 -51 363 -91 0 -38 -168 -95 -369 -124 -254 -37 -597
-42 -780 -11 -112 20 -193 52 -189 75 11 58 325 133 633 151 191 11 188 11
342 0z"/>
</g>
</svg>
